<?xml version="1.0" encoding="UTF-8"?>
<svg version="1.1" xmlns="http://www.w3.org/2000/svg" width="500" height="500">
<path d="M0 0 C1.2065625 0.3700415 1.2065625 0.3700415 2.4375 0.74755859 C18.83605631 5.83773547 46.54517787 15.27522813 55.1796875 31.171875 C55.45039063 31.77515625 55.72109375 32.3784375 56 33 C52.36819981 38.69532303 48.46230976 44.03201944 44.19921875 49.26953125 C41.76881196 52.28703453 39.41200389 55.35705947 37.0625 58.4375 C33.08842139 63.63945517 28.99639925 68.7221909 24.8125 73.7578125 C22.88877434 76.06751023 22.88877434 76.06751023 21 79 C16.2281208 78.52103815 13.29396325 76.22366447 9.625 73.375 C-5.87883859 61.90294111 -22.98848694 56.15042544 -42.44921875 58.3984375 C-55.99803851 60.57870735 -68.91546017 66.58505738 -79 76 C-79.67160156 76.61875 -80.34320313 77.2375 -81.03515625 77.875 C-91.65898787 88.68305991 -97.7935553 104.28439088 -98.375 119.3125 C-97.82627159 135.67892127 -93.283025 149.86208657 -82.59765625 162.30859375 C-81 165 -81 165 -81.40234375 167.6015625 C-83.40689222 170.61083575 -85.44847034 171.99176455 -88.5 173.9375 C-94.20688505 177.6907867 -99.6282209 181.71925054 -105 185.9375 C-106.1449292 186.83408325 -106.1449292 186.83408325 -107.31298828 187.7487793 C-108.82431165 188.93362199 -110.33490599 190.11939525 -111.84472656 191.30615234 C-115.0141181 193.79700401 -118.19027497 196.27879008 -121.375 198.75 C-122.87160156 199.91789062 -122.87160156 199.91789062 -124.3984375 201.109375 C-126.56214007 202.68179549 -128.56623719 203.91576444 -131 205 C-150.3342185 187.48214858 -161.71249382 161.85653056 -164 136 C-164.07234863 135.20883789 -164.14469727 134.41767578 -164.21923828 133.60253906 C-166.85969059 102.76437733 -160.19934937 69.67052652 -139.80859375 45.390625 C-138.28206801 43.68587544 -136.7366083 41.99787396 -135.171875 40.328125 C-133.27534488 38.29515386 -131.5132055 36.20977006 -129.75 34.0625 C-99.82277647 0.01685121 -42.77561718 -13.71736269 0 0 Z " fill="#FAF9FA" transform="translate(194,129)"/>
<path d="M0 0 C-1.54911148 4.12157538 -4.21580784 5.970474 -7.6875 8.5625 C-8.25984375 8.99304688 -8.8321875 9.42359375 -9.421875 9.8671875 C-11.27381234 11.25514054 -13.13509752 12.62952469 -15 14 C-15.61697754 14.45358887 -16.23395508 14.90717773 -16.86962891 15.37451172 C-19.37562648 17.21390215 -21.88354406 19.05060013 -24.39550781 20.88183594 C-29.71665592 24.76751153 -34.94268183 28.7674946 -40.15234375 32.80078125 C-42.4216299 34.55333008 -44.70115671 36.28666586 -47 38 C-52.1495417 41.84326382 -57.22774829 45.77989664 -62.31640625 49.703125 C-64.93749125 51.72215103 -67.56308869 53.73530041 -70.1875 55.75 C-75.39211427 59.74894907 -80.5726064 63.77839686 -85.75 67.8125 C-93.81337746 74.09369846 -101.92446493 80.31051938 -110.04980469 86.51123047 C-120.00351397 94.10049829 -120.00351397 94.10049829 -129.8125 101.875 C-134.71594285 105.82477488 -139.75284641 109.58360075 -144.80444336 113.34033203 C-150.17898279 117.34913159 -155.45367236 121.47239506 -160.65917969 125.69848633 C-164.78377693 129 -164.78377693 129 -167 129 C-167 129.66 -167 130.32 -167 131 C-168.36339728 131.94704336 -169.73493841 132.88370508 -171.13671875 133.77294922 C-174.74936981 136.1520352 -178.09896759 138.89386903 -181.5 141.5625 C-182.29317627 142.18237793 -183.08635254 142.80225586 -183.90356445 143.44091797 C-186.2706775 145.29186854 -188.6354677 147.14575444 -191 149 C-192.25380418 149.98059928 -193.50770163 150.9610793 -194.76171875 151.94140625 C-195.90364858 152.83593399 -197.04557575 153.73046513 -198.1875 154.625 C-198.73905762 155.05530518 -199.29061523 155.48561035 -199.85888672 155.92895508 C-202.96830921 158.36495618 -206.02912045 160.84787406 -209.05859375 163.3828125 C-209.73704346 163.94403809 -210.41549316 164.50526367 -211.11450195 165.08349609 C-212.42789498 166.17216893 -213.73288166 167.27108599 -215.02807617 168.38134766 C-219.45136871 172.02916308 -219.45136871 172.02916308 -222.04412842 171.89134216 C-224.6718161 170.69383572 -225.20254347 169.45298397 -226.47363281 166.87915039 C-226.91378723 166.00476822 -227.35394165 165.13038605 -227.80743408 164.22950745 C-228.26801208 163.27849655 -228.72859009 162.32748566 -229.203125 161.34765625 C-229.6857782 160.37718857 -230.1684314 159.40672089 -230.66571045 158.40684509 C-231.68406114 156.35298688 -232.69571122 154.29579486 -233.70117188 152.2355957 C-235.24512721 149.07248293 -236.80808498 145.9193706 -238.375 142.76757812 C-239.36049626 140.77399138 -240.34490843 138.7798683 -241.328125 136.78515625 C-241.79679993 135.83616959 -242.26547485 134.88718292 -242.74835205 133.90943909 C-243.17589783 133.03190475 -243.6034436 132.15437042 -244.04394531 131.25024414 C-244.61208954 130.08894737 -244.61208954 130.08894737 -245.19171143 128.90419006 C-246 127 -246 127 -246 125 C-262.57590578 133.57140918 -262.57590578 133.57140918 -279.0625 142.3125 C-292.53203008 149.53301193 -306.3191461 156.11357739 -320.09423828 162.72509766 C-328.37116761 166.70415059 -336.5973076 170.77607992 -344.80395508 174.89794922 C-348.78358582 176.89506463 -352.76709847 178.88441806 -356.75 180.875 C-358.44793301 181.72392565 -360.14584955 182.57288424 -361.84375 183.421875 C-372.15625 188.578125 -372.15625 188.578125 -374.71496582 189.85743713 C-376.39429533 190.69713221 -378.07357656 191.53692385 -379.75280762 192.3768158 C-383.68368205 194.34276421 -387.61524405 196.30730038 -391.54882812 198.26782227 C-392.26490234 198.62501343 -392.98097656 198.98220459 -393.71875 199.35021973 C-395.03548615 200.00695124 -396.35251407 200.66309831 -397.66992188 201.31848145 C-405.98514511 205.46763805 -414.22567852 209.77940061 -422.25 214.46875 C-422.95962891 214.8800415 -423.66925781 215.29133301 -424.40039062 215.71508789 C-425.75921517 216.50620818 -427.11253242 217.30689736 -428.45898438 218.11889648 C-432.70220749 220.58623179 -436.09830835 221.60205338 -441 222 C-439.61479553 218.72467873 -438.16818851 217.08917709 -435.28125 215.0390625 C-434.14417603 214.21921875 -434.14417603 214.21921875 -432.98413086 213.3828125 C-432.16436768 212.80273438 -431.34460449 212.22265625 -430.5 211.625 C-428.76025895 210.36920739 -427.02201265 209.11134178 -425.28515625 207.8515625 C-424.40102051 207.2112207 -423.51688477 206.57087891 -422.60595703 205.91113281 C-418.65757618 203.01550556 -414.79248061 200.01833329 -410.9375 197 C-409.84127319 196.14257202 -409.84127319 196.14257202 -408.72290039 195.26782227 C-407.23922233 194.10613738 -405.75606896 192.94378206 -404.2734375 191.78076172 C-400.33662165 188.69709174 -396.386248 185.63086464 -392.4375 182.5625 C-390.3297818 180.92334871 -388.22224067 179.28397003 -386.11474609 177.64453125 C-384.64406412 176.50085615 -383.17300781 175.35766232 -381.70166016 174.21484375 C-377.8225951 171.20096432 -373.95047368 168.17909667 -370.09545898 165.13452148 C-362.12398032 158.84150565 -354.0595753 152.6734812 -345.98388672 146.51513672 C-343.15011237 144.35092264 -340.32480514 142.17591107 -337.5 140 C-332.5079922 136.15615399 -327.50603093 132.32556222 -322.5 128.5 C-316.36013377 123.8076612 -310.22773101 119.10590774 -304.10546875 114.390625 C-302.00543382 112.77399434 -299.90419656 111.15908886 -297.80078125 109.546875 C-288.57810955 102.47448774 -279.39244237 95.35289869 -270.34375 88.05859375 C-262.54127157 81.76995235 -254.62885622 75.66701358 -246.58984375 69.68359375 C-243.75958078 67.57538906 -240.96216717 65.43115548 -238.1875 63.25 C-234.87004656 60.66621414 -231.54511767 58.093967 -228.1875 55.5625 C-227.29417969 54.88316406 -226.40085938 54.20382813 -225.48046875 53.50390625 C-223 52 -223 52 -219 52 C-218.18738607 53.62522786 -217.3747879 55.25046362 -216.56225586 56.87573242 C-215.84457919 58.31092082 -215.12663618 59.74597607 -214.40844727 61.1809082 C-212.57737895 64.84025903 -210.74990731 68.50126938 -208.93359375 72.16796875 C-204.78147523 80.53683021 -200.48956619 88.8065417 -196 97 C-176.99942512 88.14069581 -158.19584991 78.87772794 -139.69018555 69.02416992 C-127.89251974 62.77951973 -115.89757292 56.91163108 -103.94750977 50.96582031 C-99.98849027 48.9953402 -96.03299201 47.01786086 -92.078125 45.0390625 C-87.27666214 42.63667932 -82.47320432 40.23838619 -77.66667175 37.84616089 C-74.80738545 36.42287044 -71.94894715 34.99788152 -69.09057617 33.57275391 C-67.65375757 32.85686992 -66.21658203 32.14170189 -64.77905273 31.42724609 C-56.47693515 27.30016012 -48.22939968 23.09648701 -40.06289673 18.70655823 C-35.68834261 16.35674301 -31.27757716 14.10876038 -26.8125 11.9375 C-20.82410447 8.9908058 -15.06709653 5.80614535 -9.35546875 2.34765625 C-5.95573 0.40253209 -3.97461357 0 0 0 Z " fill="#FDD304" transform="translate(471,143)"/>
<path d="M0 0 C3 1 3 1 4.28125 2.86328125 C13.68665431 21.76452644 14.80028884 44.88440595 8.38183594 64.93066406 C0.07070123 89.11400944 -17.28926462 107.74407663 -40.04443359 119.10058594 C-43.62042466 120.74527396 -47.27899382 122.09750348 -51 123.375 C-51.68666748 123.61379883 -52.37333496 123.85259766 -53.08081055 124.09863281 C-66.11048228 128.27223493 -79.36042432 128.26586691 -92.875 128.125 C-95.92983834 128.10101916 -98.98469451 128.07966337 -102.03955078 128.05810547 C-103.55722076 128.04706884 -105.07489046 128.03599411 -106.59255981 128.02487183 C-107.71701508 128.01666412 -108.84147034 128.00845642 -110 128 C-109.99777939 128.8703035 -109.99555878 129.74060699 -109.99327087 130.63728333 C-109.97324592 138.83323983 -109.95801458 147.02918813 -109.94818783 155.22516346 C-109.942966 159.43893794 -109.93588101 163.65269222 -109.92456055 167.86645508 C-109.91370685 171.93184801 -109.90771788 175.9972215 -109.90512276 180.06262779 C-109.903273 181.61478672 -109.89966096 183.16694456 -109.89426994 184.71909523 C-109.8870266 186.89063453 -109.88601046 189.06209317 -109.88647461 191.23364258 C-109.884254 192.47052322 -109.88203339 193.70740387 -109.87974548 194.98176575 C-110 198 -110 198 -111 201 C-119.58796706 201.15359722 -128.17600286 201.30177886 -136.76418209 201.4429636 C-140.75161305 201.50868668 -144.7389934 201.57630563 -148.72631836 201.64819336 C-152.57118429 201.71744398 -156.41610331 201.7817982 -160.26111031 201.84269524 C-161.73121705 201.86685154 -163.20129543 201.8928002 -164.67133904 201.92053413 C-166.72347446 201.95894963 -168.77561649 201.99110609 -170.82788086 202.02172852 C-171.99814316 202.04171402 -173.16840546 202.06169952 -174.37413025 202.08229065 C-177 202 -177 202 -178 201 C-178.25449308 198.15973161 -178.43383902 195.34725412 -178.5625 192.5 C-178.6035083 191.59596436 -178.6445166 190.69192871 -178.68676758 189.76049805 C-179.01461122 181.51010576 -179.13709885 173.25910722 -179.17623901 165.00292969 C-179.18367699 163.55613204 -179.19429717 162.10934683 -179.20828247 160.66259766 C-179.39037726 139.90319176 -179.39037726 139.90319176 -174.7421875 134.2578125 C-173.79601562 133.55398438 -172.84984375 132.85015625 -171.875 132.125 C-171.35075439 131.72265137 -170.82650879 131.32030273 -170.28637695 130.90576172 C-168.54268262 129.57716034 -166.77302483 128.28912993 -165 127 C-163.72349274 126.04402249 -162.44879739 125.08562151 -161.17578125 124.125 C-159.16976506 122.61367562 -157.16163795 121.10579976 -155.14501953 119.60864258 C-150.43135557 116.10727162 -145.81834805 112.50105291 -141.25 108.8125 C-136.00351231 104.57849239 -130.68197803 100.47832705 -125.26953125 96.45703125 C-121.26248133 93.46334482 -117.32179186 90.38489328 -113.375 87.3125 C-112.61388916 86.72452637 -111.85277832 86.13655273 -111.06860352 85.53076172 C-107.07611589 82.43816018 -103.13872713 79.29979398 -99.265625 76.05859375 C-85.61357687 64.77082695 -85.61357687 64.77082695 -76.54296875 64.1953125 C-72.437986 63.88002965 -69.40753869 62.20749246 -66 60 C-65.40703125 59.63648438 -64.8140625 59.27296875 -64.203125 58.8984375 C-59.77935378 55.70784145 -57.98655247 52.12279036 -55.75 47.1875 C-52.28837648 39.66937814 -47.68673294 35.71573493 -41 31 C-39.08622446 29.58046662 -37.18285547 28.14763367 -35.27954102 26.71411133 C-33.92224727 25.69316127 -32.56202943 24.67608752 -31.19897461 23.6628418 C-26.42117473 20.1067315 -21.75468413 16.43376481 -17.125 12.6875 C-3.8358661 1.98697864 -3.8358661 1.98697864 0 0 Z " fill="#FAF9F9" transform="translate(437,174)"/>
<path d="M0 0 C1.34695198 -0.00503792 1.34695198 -0.00503792 2.72111511 -0.01017761 C5.70797086 -0.01971922 8.69477055 -0.0216335 11.68164062 -0.02270508 C13.76558454 -0.02591962 15.84952823 -0.02928384 17.93347168 -0.03279114 C22.31844606 -0.03879331 26.70340071 -0.04063034 31.08837891 -0.04003906 C36.66022758 -0.03993833 42.23194625 -0.05349263 47.80376434 -0.07081127 C52.11941078 -0.08203966 56.43502711 -0.08395484 60.75068665 -0.08342934 C62.80121807 -0.08459697 64.85175059 -0.08894896 66.90226746 -0.0967617 C99.32467854 -0.20855521 129.54894186 4.27279159 153.58789062 28.02026367 C158.18359659 32.68238158 158.18359659 32.68238158 159.33789062 36.14526367 C149.39011933 42.25518159 139.12566632 47.64987766 128.73486328 52.96166992 C126.55051486 54.08562655 124.37272481 55.22241988 122.20166016 56.37182617 C119.03564246 58.04635085 115.85038899 59.67754625 112.65820312 61.30151367 C111.70156769 61.81798462 110.74493225 62.33445557 109.75930786 62.86657715 C102.24567799 66.60214687 97.34524142 65.99320166 89.33789062 64.14526367 C86.59865554 63.85993819 83.92578529 63.79906436 81.16601562 63.73120117 C80.12607452 63.70215195 80.12607452 63.70215195 79.06512451 63.67251587 C76.90616151 63.6139583 74.74714149 63.56684526 72.58789062 63.52026367 C71.10089148 63.48196906 69.6139118 63.44291125 68.12695312 63.40307617 C64.53077973 63.30836462 60.93445586 63.22389459 57.33789062 63.14526367 C57.34949219 63.8490918 57.36109375 64.55291992 57.37304688 65.27807617 C57.39223255 67.377537 57.38024637 69.47740394 57.34521484 71.57666016 C57.28601475 75.1577551 57.28601475 75.1577551 57.64697266 78.76269531 C57.79459814 82.6694794 57.66544818 85.45679742 56.33789062 89.14526367 C51.81538389 93.118198 46.71560976 95.2585391 41.21289062 97.58276367 C39.80039799 98.22543971 38.39020597 98.87319742 36.98242188 99.52612305 C34.1834983 100.81495705 31.37208507 102.06598147 28.54394531 103.28930664 C25.68723534 104.53190659 22.87469971 105.83766283 20.07714844 107.20825195 C19.39661407 107.53914322 18.71607971 107.87003448 18.0149231 108.21095276 C16.72686011 108.84107951 15.44307781 109.48006033 14.16452026 110.1292572 C11.75070898 111.30063773 9.80668797 112.14771757 7.09912109 112.13354492 C4.51971699 110.68616097 3.78375083 108.92416966 2.46289062 106.29760742 C1.6971875 104.80003906 1.6971875 104.80003906 0.91601562 103.2722168 C0.39523437 102.21969727 -0.12554687 101.16717773 -0.66210938 100.08276367 C-1.18289063 99.05731445 -1.70367187 98.03186523 -2.24023438 96.9753418 C-3.26469249 94.95358923 -4.27662161 92.92543503 -5.27539062 90.89086914 C-6.57610686 88.22992569 -6.57610686 88.22992569 -7.89257812 86.10668945 C-13.65955283 76.3397869 -11.81269414 62.54521058 -11.79492188 51.57495117 C-11.79559805 50.23690778 -11.79657066 48.89886451 -11.79782104 47.56082153 C-11.79927821 44.78947756 -11.79720488 42.01816628 -11.79248047 39.24682617 C-11.78672801 35.70074362 -11.79010912 32.15473587 -11.79605293 28.60865593 C-11.80053023 25.20158163 -11.79740051 21.7945276 -11.79492188 18.38745117 C-11.79694611 17.11771454 -11.79897034 15.84797791 -11.80105591 14.5397644 C-11.79790375 13.36398834 -11.79475159 12.18821228 -11.79150391 10.97680664 C-11.79070831 9.94425751 -11.78991272 8.91170837 -11.78909302 7.84786987 C-11.67520172 5.42390951 -11.48962184 3.42295948 -10.66210938 1.14526367 C-7.34771941 -0.51193131 -3.64387428 -0.00193627 0 0 Z " fill="#FAF8F9" transform="translate(269.662109375,123.854736328125)"/>
<path d="M0 0 C2.54186757 1.11339786 3.42384027 2.32561105 4.99926758 4.59960938 C5.80593872 5.74393433 5.80593872 5.74393433 6.62890625 6.91137695 C7.18811768 7.72630615 7.7473291 8.54123535 8.32348633 9.38085938 C9.49165513 11.04179125 10.66091296 12.70195777 11.83129883 14.36132812 C12.66322754 15.54927979 12.66322754 15.54927979 13.51196289 16.76123047 C16.20961797 20.57573233 19.11248357 24.21891169 22.01098633 27.88085938 C23.74690664 30.10482942 25.47353961 32.33587241 27.19848633 34.56835938 C27.61509521 35.10372314 28.0317041 35.63908691 28.4609375 36.19067383 C29.65952239 37.74241963 30.83548469 39.31155485 32.01098633 40.88085938 C32.79086914 41.91855469 33.57075195 42.95625 34.37426758 44.02539062 C36.01098633 46.88085938 36.01098633 46.88085938 36.10473633 48.96679688 C28.53160398 62.21977849 4.56733887 71.69706715 -8.98901367 76.88085938 C-9.92358398 77.25855469 -10.8581543 77.63625 -11.82104492 78.02539062 C-42.65206877 89.53851422 -80.95494673 86.00725154 -110.59936523 72.70996094 C-120.20577739 68.14809464 -129.1274509 63.11592228 -136.98901367 55.88085938 C-133.3211376 51.40584623 -128.57217593 49.58422173 -123.42651367 47.25585938 C-116.32888054 43.96391945 -109.3309696 40.56090672 -102.42651367 36.88085938 C-101.65065918 36.47609375 -100.87480469 36.07132812 -100.07543945 35.65429688 C-96.04761166 33.54745875 -92.0999739 31.36487687 -88.19995117 29.02929688 C-75.68929312 21.80086097 -65.81257211 21.0393983 -51.53344727 21.79248047 C-35.00750253 22.3664962 -16.83890404 13.31376188 -4.80151367 2.25585938 C-1.98901367 -0.11914062 -1.98901367 -0.11914062 0 0 Z " fill="#FAF9F9" transform="translate(213.989013671875,291.119140625)"/>
<path d="M0 0 C-1.54911148 4.12157538 -4.21580784 5.970474 -7.6875 8.5625 C-8.25984375 8.99304688 -8.8321875 9.42359375 -9.421875 9.8671875 C-11.27381234 11.25514054 -13.13509752 12.62952469 -15 14 C-15.92546631 14.6803833 -15.92546631 14.6803833 -16.86962891 15.37451172 C-19.37562648 17.21390215 -21.88354406 19.05060013 -24.39550781 20.88183594 C-29.71665592 24.76751153 -34.94268183 28.7674946 -40.15234375 32.80078125 C-42.4216299 34.55333008 -44.70115671 36.28666586 -47 38 C-50.58690209 40.6767926 -54.13920642 43.39737321 -57.6875 46.125 C-58.23470703 46.54523438 -58.78191406 46.96546875 -59.34570312 47.3984375 C-62.59229805 49.89764334 -65.80880738 52.43046828 -69 55 C-69.66 54.67 -70.32 54.34 -71 54 C-70.67 52.68 -70.34 51.36 -70 50 C-68.68 50 -67.36 50 -66 50 C-66 49.34 -66 48.68 -66 48 C-65.34 48 -64.68 48 -64 48 C-64 47.01 -64 46.02 -64 45 C-62.02 44.505 -62.02 44.505 -60 44 C-60.474375 43.566875 -60.94875 43.13375 -61.4375 42.6875 C-63 41 -63 41 -64 38 C-67.3 38 -70.6 38 -74 38 C-74.33 38.99 -74.66 39.98 -75 41 C-78.465 41.495 -78.465 41.495 -82 42 C-82 42.99 -82 43.98 -82 45 C-81.34 45.33 -80.68 45.66 -80 46 C-91.52164009 48.11161731 -91.52164009 48.11161731 -97 49 C-95.49778324 45.99556647 -92.73055371 45.21428485 -89.8125 43.8125 C-88.3617296 43.10076891 -86.91123344 42.38847867 -85.4609375 41.67578125 C-84.61885742 41.26408691 -83.77677734 40.85239258 -82.90917969 40.42822266 C-76.90463184 37.48037062 -70.92182475 34.48863069 -64.9375 31.5 C-64.27704681 31.17044312 -63.61659363 30.84088623 -62.93612671 30.50134277 C-54.65964023 26.36937584 -46.43111913 22.17169746 -38.30078125 17.7578125 C-34.50845535 15.73823066 -30.66665651 13.83543145 -26.8125 11.9375 C-20.82543592 8.98779342 -15.06741235 5.80633658 -9.35546875 2.34765625 C-5.95573 0.40253209 -3.97461357 0 0 0 Z " fill="#F8CD13" transform="translate(471,143)"/>
<path d="M0 0 C-1.54911148 4.12157538 -4.21580784 5.970474 -7.6875 8.5625 C-8.25984375 8.99304688 -8.8321875 9.42359375 -9.421875 9.8671875 C-11.27381234 11.25514054 -13.13509752 12.62952469 -15 14 C-15.61697754 14.45358887 -16.23395508 14.90717773 -16.86962891 15.37451172 C-19.36972331 17.20956925 -21.87164858 19.04205174 -24.37792969 20.86865234 C-30.67367623 25.46510447 -36.84615911 30.21598541 -43 35 C-43.66 34.67 -44.32 34.34 -45 34 C-43.53115269 30.12758436 -41.50293196 29.02801324 -38 27 C-38 26.34 -38 25.68 -38 25 C-40.64 24.34 -43.28 23.68 -46 23 C-43.13565023 20.73736259 -40.24849888 18.98742149 -37 17.328125 C-36.03545898 16.83159424 -35.07091797 16.33506348 -34.07714844 15.82348633 C-33.06168945 15.30423584 -32.04623047 14.78498535 -31 14.25 C-23.57627265 10.42297248 -16.24775861 6.54708401 -9.109375 2.20703125 C-5.83230214 0.33181733 -3.83056469 0 0 0 Z " fill="#E9B72D" transform="translate(471,143)"/>
<path d="M0 0 C0.66 0.33 1.32 0.66 2 1 C1.34 1.66 0.68 2.32 0 3 C-0.71408334 4.98356483 -1.38617742 6.98315437 -2 9 C-1.25234375 8.79503906 -0.5046875 8.59007812 0.265625 8.37890625 C1.25046875 8.10949219 2.2353125 7.84007812 3.25 7.5625 C4.22453125 7.29566406 5.1990625 7.02882813 6.203125 6.75390625 C8.46372653 6.14455416 10.72622009 5.55761745 13 5 C9.91970702 8.34467059 6.28081234 9.86619482 2.1875 11.6875 C-3.50763706 14.28778367 -9.03325014 17.02501304 -14.4375 20.1875 C-18.46390345 22.53662146 -22.48565476 24.85479188 -26.625 27 C-27.38039063 27.391875 -28.13578125 27.78375 -28.9140625 28.1875 C-31 29 -31 29 -35 29 C-33.5977315 25.65810722 -32.07902685 24.02453657 -29.140625 21.93359375 C-27.97043823 21.08885498 -27.97043823 21.08885498 -26.77661133 20.22705078 C-25.94282959 19.63649902 -25.10904785 19.04594727 -24.25 18.4375 C-22.52861768 17.19585254 -20.80857846 15.95234106 -19.08984375 14.70703125 C-18.23374512 14.08779785 -17.37764648 13.46856445 -16.49560547 12.83056641 C-12.87253638 10.17298745 -9.33364782 7.415598 -5.8125 4.625 C-5.21920898 4.15505615 -4.62591797 3.6851123 -4.01464844 3.20092773 C-2.67446937 2.13641841 -1.33688874 1.06863864 0 0 Z " fill="#FCD10E" transform="translate(65,336)"/>
<path d="M0 0 C2.29767742 2.86050907 3.82793715 5.65335659 5.3125 9 C7.56517308 13.67017589 9.53787186 15.50950987 14 18 C14 18.66 14 19.32 14 20 C14.66 20 15.32 20 16 20 C16 21.32 16 22.64 16 24 C17.65002828 25.35386936 19.3174387 26.68678142 21 28 C21.8125 30.25 21.8125 30.25 22 32 C23.98 32.33 25.96 32.66 28 33 C28.226875 32.21625 28.45375 31.4325 28.6875 30.625 C30.33437038 27.33125925 31.64358353 27.20486745 35 26 C35.495 24.515 35.495 24.515 36 23 C37.65 23.33 39.3 23.66 41 24 C36.3126338 29.17226615 30.68271819 32.98925493 25 37 C14.47652599 28.40940897 8.30242081 18.88358366 2 7 C1.58363281 6.24203125 1.16726562 5.4840625 0.73828125 4.703125 C0 3 0 3 0 0 Z " fill="#F3E1E6" transform="translate(39,297)"/>
<path d="M0 0 C-1.52876084 4.1399983 -4.50277918 6.22352478 -7.9375 8.75 C-8.51072998 9.18103027 -9.08395996 9.61206055 -9.67456055 10.05615234 C-11.44255385 11.3807457 -13.21941279 12.69239666 -15 14 C-15.55655273 14.40959961 -16.11310547 14.81919922 -16.68652344 15.24121094 C-19.77827534 17.51197863 -22.88313404 19.76385168 -26 22 C-26.66 21.67 -27.32 21.34 -28 21 C-26.625 19 -26.625 19 -25 17 C-24.34 17 -23.68 17 -23 17 C-22.67 15.35 -22.34 13.7 -22 12 C-22.55429687 12.30035156 -23.10859375 12.60070312 -23.6796875 12.91015625 C-24.76636719 13.48056641 -24.76636719 13.48056641 -25.875 14.0625 C-26.59429687 14.44535156 -27.31359375 14.82820312 -28.0546875 15.22265625 C-28.69664062 15.47917969 -29.33859375 15.73570312 -30 16 C-30.66 15.67 -31.32 15.34 -32 15 C-28.45929322 13.06074205 -24.91726567 11.12390879 -21.375 9.1875 C-20.37597656 8.64029297 -19.37695312 8.09308594 -18.34765625 7.52929688 C-15.56942993 6.01139177 -12.78569285 4.50414572 -10 3 C-8.28683594 2.06607422 -8.28683594 2.06607422 -6.5390625 1.11328125 C-4 0 -4 0 0 0 Z " fill="#DAA931" transform="translate(471,143)"/>
<path d="M0 0 C0.66 0.33 1.32 0.66 2 1 C1.34 2.32 0.68 3.64 0 5 C-0.99 5 -1.98 5 -3 5 C-3.061875 5.598125 -3.12375 6.19625 -3.1875 6.8125 C-4.3236757 9.87143458 -6.17330142 10.55041099 -9 12 C-7.02 11.67 -5.04 11.34 -3 11 C-3 11.66 -3 12.32 -3 13 C-2.4225 12.649375 -1.845 12.29875 -1.25 11.9375 C1.35801776 10.85082593 2.39417629 11.06934867 5 12 C5 11.34 5 10.68 5 10 C6.98 10 8.96 10 11 10 C6.09169804 13.81756819 1.47061325 16.36702096 -4.5 18.1875 C-5.6034375 18.53167969 -6.706875 18.87585938 -7.84375 19.23046875 C-10.71989799 19.9317078 -13.06024953 20.15905366 -16 20 C-13.85201015 10.23640978 -7.78297884 5.73125675 0 0 Z " fill="#FDD317" transform="translate(79,325)"/>
<path d="M0 0 C0.66 0.33 1.32 0.66 2 1 C0.71937515 2.7074998 -0.61767557 4.37373596 -2 6 C-2.66 6 -3.32 6 -4 6 C-5.4606285 8.64738916 -6 9.89448334 -6 13 C-8 15.1875 -8 15.1875 -10 17 C-10.99 16.67 -11.98 16.34 -13 16 C-12.67 15.34 -12.34 14.68 -12 14 C-12.66 14 -13.32 14 -14 14 C-14 14.66 -14 15.32 -14 16 C-14.99 16 -15.98 16 -17 16 C-17.2475 16.639375 -17.495 17.27875 -17.75 17.9375 C-18.1625 18.618125 -18.575 19.29875 -19 20 C-19.598125 20.144375 -20.19625 20.28875 -20.8125 20.4375 C-24.09337934 21.28115469 -25.67073278 23.6125011 -28 26 C-29.33333333 26.66666667 -30.66666667 27.33333333 -32 28 C-33.73425773 30.03317007 -33.73425773 30.03317007 -35 32 C-36.32 31.67 -37.64 31.34 -39 31 C-31.93247454 25.01488835 -24.7663767 19.21974199 -17.40234375 13.60546875 C-13.63568981 10.73135526 -9.91021814 7.80568071 -6.1875 4.875 C-5.5702002 4.389104 -4.95290039 3.90320801 -4.31689453 3.40258789 C-2.87750045 2.26893672 -1.43868292 1.13455355 0 0 Z " fill="#ECBD31" transform="translate(216,219)"/>
<path d="M0 0 C1.32 0.66 2.64 1.32 4 2 C1.25119925 4.27228816 -1.49924996 6.54257212 -4.25 8.8125 C-5.02730469 9.45509766 -5.80460937 10.09769531 -6.60546875 10.75976562 C-7.73662109 11.69272461 -7.73662109 11.69272461 -8.890625 12.64453125 C-9.58188477 13.21534424 -10.27314453 13.78615723 -10.98535156 14.37426758 C-16.72829493 19.00856955 -16.72829493 19.00856955 -19.10546875 18.93359375 C-21.57729101 17.71552051 -22.15345606 16.53721545 -23.3125 14.0625 C-23.65925781 13.35222656 -24.00601563 12.64195312 -24.36328125 11.91015625 C-24.57339844 11.27980469 -24.78351563 10.64945312 -25 10 C-24.67 9.34 -24.34 8.68 -24 8 C-23.34 8.33 -22.68 8.66 -22 9 C-21.67 7.68 -21.34 6.36 -21 5 C-20.67 6.32 -20.34 7.64 -20 9 C-19.236875 8.938125 -18.47375 8.87625 -17.6875 8.8125 C-15 9 -15 9 -13.1875 10.5 C-12.795625 10.995 -12.40375 11.49 -12 12 C-11.67 10.35 -11.34 8.7 -11 7 C-10.01 7 -9.02 7 -8 7 C-5.91666667 6.83333333 -5.91666667 6.83333333 -4 6 C-2.71563266 4.0162233 -2.71563266 4.0162233 -2 2 C-1.01 2.33 -0.02 2.66 1 3 C0.67 2.01 0.34 1.02 0 0 Z " fill="#FDD412" transform="translate(268,296)"/>
<path d="M0 0 C0.66 0.33 1.32 0.66 2 1 C1.34 1.66 0.68 2.32 0 3 C-0.71408334 4.98356483 -1.38617742 6.98315437 -2 9 C-1.25234375 8.79503906 -0.5046875 8.59007812 0.265625 8.37890625 C1.74289063 7.97478516 1.74289063 7.97478516 3.25 7.5625 C4.22453125 7.29566406 5.1990625 7.02882813 6.203125 6.75390625 C8.46372653 6.14455416 10.72622009 5.55761745 13 5 C10.89531496 7.29917066 8.98848691 8.66931277 6.1640625 9.97265625 C5.42929688 10.31490234 4.69453125 10.65714844 3.9375 11.00976562 C3.174375 11.35716797 2.41125 11.70457031 1.625 12.0625 C0.86960937 12.41376953 0.11421875 12.76503906 -0.6640625 13.12695312 C-4.40486462 14.85674711 -8.15148145 16.52039028 -12 18 C-11.67 17.34 -11.34 16.68 -11 16 C-10.34 16 -9.68 16 -9 16 C-9 15.01 -9 14.02 -9 13 C-8.01 12.34 -7.02 11.68 -6 11 C-5.67 10.34 -5.34 9.68 -5 9 C-7.31 9.66 -9.62 10.32 -12 11 C-12 11.99 -12 12.98 -12 14 C-14.31 14.66 -16.62 15.32 -19 16 C-15.16771102 11.99185072 -11.07477678 8.57171247 -6.6875 5.1875 C-6.04232422 4.68541016 -5.39714844 4.18332031 -4.73242188 3.66601562 C-3.15732875 2.44094319 -1.57899684 1.2200368 0 0 Z " fill="#EFC21F" transform="translate(65,336)"/>
<path d="M0 0 C0.99 0.66 1.98 1.32 3 2 C2.25 3.9375 2.25 3.9375 1 6 C-1.125 6.75 -1.125 6.75 -3 7 C-3.0825 7.5775 -3.165 8.155 -3.25 8.75 C-4.25983994 11.77951983 -5.42149026 13.11838478 -8 15 C-11.25 14.75 -11.25 14.75 -14 14 C-14 13.34 -14 12.68 -14 12 C-13.34 12 -12.68 12 -12 12 C-12 11.34 -12 10.68 -12 10 C-10.68 9.67 -9.36 9.34 -8 9 C-8.165 8.195625 -8.33 7.39125 -8.5 6.5625 C-9 4 -9 4 -9 3 C-6.46968156 -0.51433116 -4.140507 -0.43130281 0 0 Z " fill="#F9CD15" transform="translate(431,166)"/>
<path d="M0 0 C3 1 3 1 4.28125 2.86328125 C8.76686811 11.87764842 11.58460508 20.86684523 11 31 C10.67 31 10.34 31 10 31 C9.71125 29.88625 9.4225 28.7725 9.125 27.625 C8.30758671 23.99708908 8.30758671 23.99708908 6 22 C6.165 21.2575 6.33 20.515 6.5 19.75 C7.15276569 16.15978868 6.54043677 14.2909331 5 11 C2.89286554 8.38036865 2.89286554 8.38036865 0 7 C-3.0497509 7.68314723 -3.0497509 7.68314723 -6 9 C-8.875 9.125 -8.875 9.125 -11 9 C-7.61791761 5.41897159 -4.30323854 2.43226526 0 0 Z " fill="#F8E9E8" transform="translate(437,174)"/>
<path d="M0 0 C1.17154293 2.28929053 2.33738074 4.58118362 3.5 6.875 C4.00080078 7.85146484 4.00080078 7.85146484 4.51171875 8.84765625 C7 13.7734375 7 13.7734375 7 16 C6.34 16 5.68 16 5 16 C4 15 3 14 2 13 C1.34 13 0.68 13 0 13 C-0.33 12.67 -0.66 12.34 -1 12 C-1.66 11.67 -2.32 11.34 -3 11 C-3 10.34 -3 9.68 -3 9 C-4.11375 8.690625 -5.2275 8.38125 -6.375 8.0625 C-10 7 -10 7 -12 6 C-10.75945552 4.98829382 -9.5071298 3.99102203 -8.25 3 C-7.55390625 2.443125 -6.8578125 1.88625 -6.140625 1.3125 C-4 0 -4 0 0 0 Z " fill="#FBD207" transform="translate(252,195)"/>
<path d="M0 0 C0.33 0.66 0.66 1.32 1 2 C0.67 2.66 0.34 3.32 0 4 C-0.66 4 -1.32 4 -2 4 C-2.268125 4.639375 -2.53625 5.27875 -2.8125 5.9375 C-4 8 -4 8 -7 9 C-7.28875 9.94875 -7.5775 10.8975 -7.875 11.875 C-9 15 -9 15 -11.1875 16.6875 C-14.43264997 18.20190332 -17.68834845 19.63637877 -21 21 C-21.33 19.68 -21.66 18.36 -22 17 C-19.64769976 15.10181178 -17.29323711 13.20641494 -14.9375 11.3125 C-14.28072266 10.78205078 -13.62394531 10.25160156 -12.94726562 9.70507812 C-8.72813552 6.31730371 -4.43107479 3.10578584 0 0 Z " fill="#FAF4F5" transform="translate(327,259)"/>
<path d="M0 0 C0 0.66 0 1.32 0 2 C-0.66 2 -1.32 2 -2 2 C-2 2.66 -2 3.32 -2 4 C-5.29548106 7.10716786 -7.6067648 8.24993545 -12 9 C-14.91331736 10.33527046 -17.62394461 11.75607218 -20.3125 13.5 C-25.40592369 16.34284113 -30.24985832 18.63019869 -36 17 C-31.1970455 14.57385134 -26.39151582 12.15291158 -21.58349609 9.73681641 C-19.94735559 8.91370938 -18.31193512 8.08916949 -16.67724609 7.26318359 C-14.33096977 6.07795122 -11.98217415 4.8978523 -9.6328125 3.71875 C-8.89942657 3.34689575 -8.16604065 2.9750415 -7.41043091 2.59191895 C-2.22774341 0 -2.22774341 0 0 0 Z " fill="#F0BE36" transform="translate(316,221)"/>
<path d="M0 0 C3.458176 -0.0868329 6.91607344 -0.14033282 10.375 -0.1875 C11.35984375 -0.21263672 12.3446875 -0.23777344 13.359375 -0.26367188 C14.77089844 -0.27817383 14.77089844 -0.27817383 16.2109375 -0.29296875 C17.08024902 -0.3086792 17.94956055 -0.32438965 18.84521484 -0.34057617 C19.55629395 -0.22818604 20.26737305 -0.1157959 21 0 C21.66 0.99 22.32 1.98 23 3 C21.35 3 19.7 3 18 3 C20.97 3.495 20.97 3.495 24 4 C24 4.33 24 4.66 24 5 C15.42 5 6.84 5 -2 5 C-1.34 3.35 -0.68 1.7 0 0 Z " fill="#F3EDF3" transform="translate(149,370)"/>
<path d="M0 0 C0.70744354 0.00141495 1.41488708 0.0028299 2.14376831 0.00428772 C4.40578419 0.00989025 6.66770148 0.02244307 8.9296875 0.03515625 C10.46223815 0.04017093 11.99479036 0.04473389 13.52734375 0.04882812 C17.28649638 0.05986048 21.04557522 0.07712673 24.8046875 0.09765625 C24.8046875 0.42765625 24.8046875 0.75765625 24.8046875 1.09765625 C21.1746875 1.42765625 17.5446875 1.75765625 13.8046875 2.09765625 C13.4746875 3.08765625 13.1446875 4.07765625 12.8046875 5.09765625 C8.1846875 5.09765625 3.5646875 5.09765625 -1.1953125 5.09765625 C-0.5353125 4.76765625 0.1246875 4.43765625 0.8046875 4.09765625 C0.8046875 3.43765625 0.8046875 2.77765625 0.8046875 2.09765625 C-0.1028125 2.26265625 -1.0103125 2.42765625 -1.9453125 2.59765625 C-5.1953125 3.09765625 -5.1953125 3.09765625 -9.1953125 3.09765625 C-9.1953125 2.43765625 -9.1953125 1.77765625 -9.1953125 1.09765625 C-6.23720774 -0.38139613 -3.240597 -0.02425278 0 0 Z " fill="#F1E4E6" transform="translate(148.1953125,312.90234375)"/>
<path d="M0 0 C4.95 0 9.9 0 15 0 C12.58817843 2.41182157 11.33023999 3.52611944 8.453125 4.97265625 C7.7725 5.31490234 7.091875 5.65714844 6.390625 6.00976562 C5.33101562 6.53086914 5.33101562 6.53086914 4.25 7.0625 C3.21359375 7.5894043 3.21359375 7.5894043 2.15625 8.12695312 C-2.16330433 10.2745511 -6.32230098 11.81832996 -11 13 C-11.33 12.34 -11.66 11.68 -12 11 C-8.535 10.505 -8.535 10.505 -5 10 C-5 9.01 -5 8.02 -5 7 C-4.34 7 -3.68 7 -3 7 C-3 6.34 -3 5.68 -3 5 C-2.01 4.34 -1.02 3.68 0 3 C0 2.01 0 1.02 0 0 Z " fill="#EFBF20" transform="translate(185,280)"/>
<path d="M0 0 C2.475 0.495 2.475 0.495 5 1 C3.700625 2.485 3.700625 2.485 2.375 4 C1.24599906 5.32994724 0.12110824 6.66339269 -1 8 C-1.49113281 8.57878906 -1.98226562 9.15757812 -2.48828125 9.75390625 C-7.42172105 15.91073274 -10.63515931 22.91193321 -14 30 C-16.40201504 25.80120206 -16.15864149 22.75924459 -16 18 C-15.34 18 -14.68 18 -14 18 C-13.67 18.66 -13.34 19.32 -13 20 C-10.26629955 17.63907689 -9.08902355 15.43461272 -8 12 C-8 10.68 -8 9.36 -8 8 C-6.68 8.33 -5.36 8.66 -4 9 C-3.34 6.69 -2.68 4.38 -2 2 C-1.34 2 -0.68 2 0 2 C0 1.34 0 0.68 0 0 Z " fill="#F0DDE9" transform="translate(113,200)"/>
<path d="M0 0 C1.32 0.33 2.64 0.66 4 1 C1.62004533 2.90396374 -0.76001433 4.80779394 -3.140625 6.7109375 C-4.96559851 8.17191356 -6.78871105 9.63521938 -8.609375 11.1015625 C-12.54645183 14.26834169 -16.49452947 17.41998115 -20.5 20.5 C-21.1290625 20.9846875 -21.758125 21.469375 -22.40625 21.96875 C-24 23 -24 23 -26 23 C-26 22.01 -26 21.02 -26 20 C-25.34 20 -24.68 20 -24 20 C-24 19.34 -24 18.68 -24 18 C-22.68 18 -21.36 18 -20 18 C-20 17.01 -20 16.02 -20 15 C-19.01 15 -18.02 15 -17 15 C-16.67 14.01 -16.34 13.02 -16 12 C-14.68 12 -13.36 12 -12 12 C-11.896875 11.360625 -11.79375 10.72125 -11.6875 10.0625 C-11.3471875 9.0415625 -11.3471875 9.0415625 -11 8 C-10.01 7.67 -9.02 7.34 -8 7 C-8 6.34 -8 5.68 -8 5 C-8.66 4.34 -9.32 3.68 -10 3 C-6.7 3 -3.4 3 0 3 C0 2.01 0 1.02 0 0 Z " fill="#E9B537" transform="translate(356,229)"/>
<path d="M0 0 C0 3.71216375 -0.39889796 5.38011352 -3 8.0625 C-3.66 8.701875 -4.32 9.34125 -5 10 C-5.33 10.66 -5.66 11.32 -6 12 C-8.8125 12.8125 -8.8125 12.8125 -12 13 C-14.375 11.5625 -14.375 11.5625 -16 10 C-15.34 10 -14.68 10 -14 10 C-13.79632813 9.40703125 -13.59265625 8.8140625 -13.3828125 8.203125 C-11.44255008 5.11185945 -9.15108576 4.28348695 -5.875 2.75 C-4.77929688 2.22921875 -3.68359375 1.7084375 -2.5546875 1.171875 C-1.29011719 0.59179688 -1.29011719 0.59179688 0 0 Z " fill="#FBD11F" transform="translate(449,154)"/>
<path d="M0 0 C1.08429291 0.00303635 1.08429291 0.00303635 2.19049072 0.00613403 C2.93188293 0.00517731 3.67327515 0.00422058 4.43713379 0.00323486 C6.01084477 0.00255282 7.58455855 0.00440881 9.15826416 0.00857544 C11.55709249 0.01389328 13.95573099 0.00864703 16.35455322 0.00222778 C17.88319947 0.00288915 19.41184559 0.00417153 20.94049072 0.00613403 C22.01263824 0.00309769 22.01263824 0.00309769 23.10644531 0 C26.80675435 0.01722635 30.23283166 0.25732316 33.83111572 1.13894653 C33.83111572 1.46894653 33.83111572 1.79894653 33.83111572 2.13894653 C21.29111572 1.80894653 8.75111572 1.47894653 -4.16888428 1.13894653 C-4.16888428 5.09894653 -4.16888428 9.05894653 -4.16888428 13.13894653 C-4.30243997 15.72420315 -4.46244749 18.30848674 -4.66888428 20.88894653 C-4.76169678 22.08004028 -4.85450928 23.27113403 -4.95013428 24.49832153 C-5.02232178 25.36972778 -5.09450928 26.24113403 -5.16888428 27.13894653 C-7.14888428 27.79894653 -9.12888428 28.45894653 -11.16888428 29.13894653 C-9.79388428 26.63894653 -9.79388428 26.63894653 -8.16888428 24.13894653 C-7.50888428 24.13894653 -6.84888428 24.13894653 -6.16888428 24.13894653 C-6.17412109 23.44744507 -6.17935791 22.7559436 -6.18475342 22.04348755 C-6.20545928 18.92948301 -6.21852391 15.81549292 -6.23138428 12.70144653 C-6.23976318 11.61283325 -6.24814209 10.52421997 -6.2567749 9.40261841 C-6.25999756 8.36814575 -6.26322021 7.3336731 -6.26654053 6.26785278 C-6.27177734 5.30951538 -6.27701416 4.35117798 -6.28240967 3.36380005 C-6.06484141 -0.90006989 -3.70110203 0.01755698 0 0 Z " fill="#E4C2D8" transform="translate(331.16888427734375,185.86105346679688)"/>
<path d="M0 0 C12.86022545 -1.01975356 26.00888474 2.5588462 38 7 C38 7.33 38 7.66 38 8 C35.69 8.33 33.38 8.66 31 9 C31 8.34 31 7.68 31 7 C29.02463255 7.34786708 29.02463255 7.34786708 27 8 C26.67 8.66 26.34 9.32 26 10 C24.66666667 9.33333333 23.33333333 8.66666667 22 8 C21.01 8.33 20.02 8.66 19 9 C19 7.35 19 5.7 19 4 C12.66226532 2.46667709 6.49850211 1.51553879 0 1 C0 0.67 0 0.34 0 0 Z " fill="#F8E6F4" transform="translate(165,125)"/>
<path d="M0 0 C2.74680054 1.37340027 3.09177238 2.98738257 4.375 5.75 C6.22809317 9.59915495 8.23577275 12.72387881 11 16 C11 16.66 11 17.32 11 18 C9.68 18.33 8.36 18.66 7 19 C6.67 17.02 6.34 15.04 6 13 C4.02 13.33 2.04 13.66 0 14 C0.33 12.02 0.66 10.04 1 8 C0.67 8.66 0.34 9.32 0 10 C-0.66 10 -1.32 10 -2 10 C-2.6875 6.6875 -2.6875 6.6875 -3 3 C-1.5625 1.0625 -1.5625 1.0625 0 0 Z " fill="#F2EAEB" transform="translate(99,274)"/>
<path d="M0 0 C0.66 0.33 1.32 0.66 2 1 C-0.46153846 5.8 -0.46153846 5.8 -3.1875 6.8125 C-3.785625 6.874375 -4.38375 6.93625 -5 7 C-5 7.66 -5 8.32 -5 9 C-6.58960328 10.80636736 -7.83852297 11.91926148 -10 13 C-10.33 13.99 -10.66 14.98 -11 16 C-13.97 16.33 -16.94 16.66 -20 17 C-16.35638141 13.19231604 -12.52734452 9.96766673 -8.3125 6.8125 C-3.99396538 3.59904829 -3.99396538 3.59904829 0 0 Z " fill="#FCD217" transform="translate(238,202)"/>
<path d="M0 0 C5.40445384 1.63771328 10.4596461 5.19845018 13.20703125 10.1953125 C13.46871094 10.79085937 13.73039063 11.38640625 14 12 C13.04737966 13.48285242 12.08771595 14.96118201 11.125 16.4375 C10.59132812 17.26121094 10.05765625 18.08492187 9.5078125 18.93359375 C8 21 8 21 6 22 C4.76987522 18.30962565 5.4821168 17.45740062 7 14 C7.75023554 11.44919917 8 9.69979128 8 7 C6.23314356 5.34803527 6.23314356 5.34803527 4 3.875 C2.65350049 2.93525555 1.31641955 1.98143779 0 1 C0 0.67 0 0.34 0 0 Z " fill="#F2D7EA" transform="translate(236,150)"/>
<path d="M0 0 C0 0.66 0 1.32 0 2 C-0.66 2 -1.32 2 -2 2 C-2.33 2.99 -2.66 3.98 -3 5 C-5.31 5.33 -7.62 5.66 -10 6 C-10 6.99 -10 7.98 -10 9 C-9.34 9.33 -8.68 9.66 -8 10 C-19.52164009 12.11161731 -19.52164009 12.11161731 -25 13 C-23.31921955 9.63843909 -19.58301222 8.64126808 -16.3125 7.0625 C-15.60416016 6.71509766 -14.89582031 6.36769531 -14.16601562 6.00976562 C-12.76935873 5.32497817 -11.37110749 4.64343179 -9.97119141 3.96533203 C-8.17039704 3.08344685 -6.38687212 2.16651966 -4.60546875 1.24609375 C-2 0 -2 0 0 0 Z " fill="#EBB736" transform="translate(399,179)"/>
<path d="M0 0 C1.13199353 0.9080162 2.25532363 1.82683826 3.375 2.75 C4.00148438 3.26046875 4.62796875 3.7709375 5.2734375 4.296875 C7.08312318 6.08199481 8.00117455 7.67949644 9 10 C7.3811004 11.03048037 5.75467511 12.04914678 4.125 13.0625 C3.22007812 13.63097656 2.31515625 14.19945312 1.3828125 14.78515625 C0.59648437 15.18605469 -0.18984375 15.58695313 -1 16 C-1.66 15.67 -2.32 15.34 -3 15 C-2.67 14.34 -2.34 13.68 -2 13 C-0.68 13 0.64 13 2 13 C2 12.01 2 11.02 2 10 C1.01 10 0.02 10 -1 10 C-1 9.01 -1 8.02 -1 7 C-0.34 7 0.32 7 1 7 C0.67 4.69 0.34 2.38 0 0 Z " fill="#F6EFF2" transform="translate(420,150)"/>
<path d="M0 0 C0.66 0.33 1.32 0.66 2 1 C0.50871999 4.79598549 -1.65733441 6.71720399 -5 9 C-5.99 9 -6.98 9 -8 9 C-8.226875 9.804375 -8.45375 10.60875 -8.6875 11.4375 C-9.3371875 12.7059375 -9.3371875 12.7059375 -10 14 C-12.3125 14.6875 -12.3125 14.6875 -15 15 C-16.6792238 15.63437344 -18.35008418 16.29289322 -20 17 C-16.64184608 13.55042629 -13.17876604 10.40339616 -9.4375 7.375 C-8.50808594 6.61960937 -7.57867187 5.86421875 -6.62109375 5.0859375 C-4.44040125 3.35048326 -2.24130257 1.65592707 0 0 Z " fill="#E8B231" transform="translate(123,291)"/>
<path d="M0 0 C0.66 0.99 1.32 1.98 2 3 C-0.39888569 7.79777137 -4.44432101 9.97291293 -9.125 12.25 C-10.17945313 12.77078125 -11.23390625 13.2915625 -12.3203125 13.828125 C-15 15 -15 15 -17 15 C-16 12 -16 12 -14 10 C-10.875 9.875 -10.875 9.875 -8 10 C-8 8.02 -8 6.04 -8 4 C-5.35261084 2.5393715 -4.10551666 2 -1 2 C-0.67 1.34 -0.34 0.68 0 0 Z " fill="#F8F8F5" transform="translate(321,208)"/>
<path d="M0 0 C2.29767742 2.86050907 3.82793715 5.65335659 5.3125 9 C7.56517308 13.67017589 9.53787186 15.50950987 14 18 C14 18.66 14 19.32 14 20 C14.66 20 15.32 20 16 20 C16 21.32 16 22.64 16 24 C16.66 24.33 17.32 24.66 18 25 C18 25.66 18 26.32 18 27 C10.64773907 24.66235806 7.7844747 18.2284904 4.21875 11.77734375 C0 3.5885908 0 3.5885908 0 0 Z " fill="#E6CFE2" transform="translate(39,297)"/>
<path d="M0 0 C0.66 0.33 1.32 0.66 2 1 C0.71937515 2.7074998 -0.61767557 4.37373596 -2 6 C-2.66 6 -3.32 6 -4 6 C-5.4606285 8.64738916 -6 9.89448334 -6 13 C-8 15.1875 -8 15.1875 -10 17 C-10.99 16.67 -11.98 16.34 -13 16 C-12.67 15.34 -12.34 14.68 -12 14 C-12.66 13.67 -13.32 13.34 -14 13 C-9.89962427 7.75027653 -5.47035213 3.79037089 0 0 Z " fill="#FED410" transform="translate(216,219)"/>
<path d="M0 0 C1.92759992 1.67617384 2.90534623 2.59772148 3.5 5.125 C3.665 5.74375 3.83 6.3625 4 7 C4.99 7.33 5.98 7.66 7 8 C8.2013939 10.79147405 9.03993257 13.62911531 9.9375 16.53125 C10.288125 17.3459375 10.63875 18.160625 11 19 C11.99 19.33 12.98 19.66 14 20 C14.66 23.96 15.32 27.92 16 32 C13.49176526 28.65568701 11.71958319 25.69687417 9.86328125 21.9921875 C9.28642578 20.84105469 8.70957031 19.68992187 8.11523438 18.50390625 C7.81963623 17.90852051 7.52403809 17.31313477 7.21948242 16.69970703 C6.31049714 14.87097056 5.39299675 13.04668584 4.47460938 11.22265625 C3.90162109 10.07410156 3.32863281 8.92554688 2.73828125 7.7421875 C2.21274658 6.6888623 1.68721191 5.63553711 1.14575195 4.55029297 C0 2 0 2 0 0 Z " fill="#E7B537" transform="translate(227,272)"/>
<path d="M0 0 C2.97 0.495 2.97 0.495 6 1 C6.33 1.99 6.66 2.98 7 4 C5.09118566 5.03544174 3.17260796 6.05290085 1.25 7.0625 C0.18265625 7.63097656 -0.8846875 8.19945312 -1.984375 8.78515625 C-5 10 -5 10 -7.328125 9.87109375 C-9 9 -9 9 -10 6 C-7.10765685 5.17361624 -5.11257569 5 -2 5 C-2 4.01 -2 3.02 -2 2 C-1.34 2 -0.68 2 0 2 C0 1.34 0 0.68 0 0 Z " fill="#F9EEF5" transform="translate(284,226)"/>
<path d="M0 0 C0.66 0.33 1.32 0.66 2 1 C1.34 1.66 0.68 2.32 0 3 C-0.165 3.804375 -0.33 4.60875 -0.5 5.4375 C-2.39574584 8.67606581 -3.5995934 8.7697741 -7.125 9.8125 C-8.74511976 10.22785648 -10.36895675 10.6298555 -12 11 C-12 11.99 -12 12.98 -12 14 C-14.31 14.66 -16.62 15.32 -19 16 C-15.16771102 11.99185072 -11.07477678 8.57171247 -6.6875 5.1875 C-6.04232422 4.68541016 -5.39714844 4.18332031 -4.73242188 3.66601562 C-3.15732875 2.44094319 -1.57899684 1.2200368 0 0 Z " fill="#F2C331" transform="translate(65,336)"/>
<path d="M0 0 C0.99 0.66 1.98 1.32 3 2 C-1.95 5.96 -6.9 9.92 -12 14 C-12.66 12.68 -13.32 11.36 -14 10 C-13.05125 9.54625 -12.1025 9.0925 -11.125 8.625 C-7.99686321 7.19761746 -7.99686321 7.19761746 -6 5 C-6.3185177 2.89179203 -6.3185177 2.89179203 -7 1 C-4.69 1.33 -2.38 1.66 0 2 C0 1.34 0 0.68 0 0 Z " fill="#F7C621" transform="translate(296,275)"/>
<path d="M0 0 C-1.5450711 4.28632628 -4.79319716 6.49235837 -8.3125 9.125 C-9.16618164 9.78822266 -9.16618164 9.78822266 -10.03710938 10.46484375 C-13.22182093 12.88537079 -16.20038159 14.73108428 -20 16 C-15.3126338 10.82773385 -9.68271819 7.01074507 -4 3 C-7.3 4.32 -10.6 5.64 -14 7 C-14 6.34 -14 5.68 -14 5 C-12.421924 4.15675328 -10.8372958 3.32576082 -9.25 2.5 C-8.36828125 2.0359375 -7.4865625 1.571875 -6.578125 1.09375 C-4 0 -4 0 0 0 Z " fill="#AB6B40" transform="translate(471,143)"/>
<path d="M0 0 C-0.1875 1.875 -0.1875 1.875 -1 4 C-3.5625 5.25 -3.5625 5.25 -6 6 C-6 6.66 -6 7.32 -6 8 C-7.53125 9.25390625 -7.53125 9.25390625 -9.5 10.5625 C-10.68185318 11.35274707 -11.85287278 12.160139 -13 13 C-13 13.33 -13 13.66 -13 14 C-15.31 14.33 -17.62 14.66 -20 15 C-16.3429012 11.19195153 -12.50430058 7.89187757 -8.3125 4.6875 C-7.73177734 4.23310547 -7.15105469 3.77871094 -6.55273438 3.31054688 C-2.2465343 0 -2.2465343 0 0 0 Z " fill="#EDBE2C" transform="translate(164,261)"/>
<path d="M0 0 C0.99 0 1.98 0 3 0 C3.33 0.66 3.66 1.32 4 2 C4.99 2 5.98 2 7 2 C7 4.66666667 7 7.33333333 7 10 C7.33 10.66 7.66 11.32 8 12 C3.56541027 10.6062718 1.12621626 8.39417765 -2 5 C-1.34 3.35 -0.68 1.7 0 0 Z " fill="#F6F8F5" transform="translate(200,192)"/>
<path d="M0 0 C0.99 0.33 1.98 0.66 3 1 C0.48673841 2.49347477 -2.03434909 3.96961326 -4.5625 5.4375 C-5.26697266 5.85837891 -5.97144531 6.27925781 -6.69726562 6.71289062 C-11.21964348 9.31794699 -14.78339707 10.62297876 -20 11 C-18.50902342 7.2047869 -16.24299151 5.38957269 -13 3 C-12.34 3.33 -11.68 3.66 -11 4 C-11.66 4.66 -12.32 5.32 -13 6 C-9.46430536 4.96516255 -6.43661117 3.73349602 -3.3125 1.8125 C-2.219375 1.214375 -1.12625 0.61625 0 0 Z " fill="#BC6E28" transform="translate(50,354)"/>
<path d="M0 0 C2.33204609 2.13041393 3.70885681 4.0857674 5.04296875 6.94140625 C5.39423828 7.68970703 5.74550781 8.43800781 6.10742188 9.20898438 C6.46384766 9.98564453 6.82027344 10.76230469 7.1875 11.5625 C7.55552734 12.34302734 7.92355469 13.12355469 8.30273438 13.92773438 C11 19.7276061 11 19.7276061 11 22 C10.01 22 9.02 22 8 22 C6.50178941 18.62902617 6 16.79557881 6 13 C5.01 13 4.02 13 3 13 C0.78145293 8.37802694 -0.38281159 5.23175837 0 0 Z " fill="#E8B439" transform="translate(259,211)"/>
<path d="M0 0 C0.99 0.66 1.98 1.32 3 2 C1.75160501 3.105981 0.50120766 4.20970201 -0.75 5.3125 C-1.44609375 5.92738281 -2.1421875 6.54226562 -2.859375 7.17578125 C-3.56578125 7.77777344 -4.2721875 8.37976563 -5 9 C-6.02867187 9.88751953 -6.02867187 9.88751953 -7.078125 10.79296875 C-7.71234375 11.19128906 -8.3465625 11.58960938 -9 12 C-9.99 11.67 -10.98 11.34 -12 11 C-11.67 10.34 -11.34 9.68 -11 9 C-10.34 9 -9.68 9 -9 9 C-8.67 7.35 -8.34 5.7 -8 4 C-5 3 -5 3 -2 4 C-1.34 2.68 -0.68 1.36 0 0 Z " fill="#F0C028" transform="translate(371,217)"/>
<path d="M0 0 C0.66 0.33 1.32 0.66 2 1 C-0.58090767 2.31746333 -3.16450458 3.62909617 -5.75 4.9375 C-6.47960937 5.31068359 -7.20921875 5.68386719 -7.9609375 6.06835938 C-8.66992188 6.42607422 -9.37890625 6.78378906 -10.109375 7.15234375 C-11.08342285 7.6472229 -11.08342285 7.6472229 -12.07714844 8.15209961 C-14.03293079 9.01452116 -15.91540694 9.54374179 -18 10 C-17.34 8.02 -16.68 6.04 -16 4 C-15.13375 3.855625 -14.2675 3.71125 -13.375 3.5625 C-11.704375 3.2840625 -11.704375 3.2840625 -10 3 C-8.96875 2.855625 -7.9375 2.71125 -6.875 2.5625 C-4.02524425 2.1378495 -4.02524425 2.1378495 -1.75 0.875 C-1.1725 0.58625 -0.595 0.2975 0 0 Z " fill="#E7B12C" transform="translate(172,293)"/>
<path d="M0 0 C1.32 0.66 2.64 1.32 4 2 C1.52397473 4.00391498 -0.95632655 6.00246416 -3.4375 8 C-4.14455078 8.57234375 -4.85160156 9.1446875 -5.58007812 9.734375 C-6.59038086 10.54648437 -6.59038086 10.54648437 -7.62109375 11.375 C-8.2442749 11.87773437 -8.86745605 12.38046875 -9.50952148 12.8984375 C-11 14 -11 14 -12 14 C-11.67 11.69 -11.34 9.38 -11 7 C-10.01 7 -9.02 7 -8 7 C-5.91666667 6.83333333 -5.91666667 6.83333333 -4 6 C-2.71563266 4.0162233 -2.71563266 4.0162233 -2 2 C-1.01 2.33 -0.02 2.66 1 3 C0.67 2.01 0.34 1.02 0 0 Z " fill="#E8B232" transform="translate(268,296)"/>
<path d="M0 0 C3.39417765 3.12621626 5.6062718 5.56541027 7 10 C5.35 11.65 3.7 13.3 2 15 C1.814375 14.1028125 1.814375 14.1028125 1.625 13.1875 C1.04524015 10.73768652 1.04524015 10.73768652 -1 8 C-0.34 8 0.32 8 1 8 C0.67 5.36 0.34 2.72 0 0 Z " fill="#F2E0EB" transform="translate(243,330)"/>
<path d="M0 0 C0 0.66 0 1.32 0 2 C-0.66 2 -1.32 2 -2 2 C-2 2.99 -2 3.98 -2 5 C-1.360625 5.2475 -0.72125 5.495 -0.0625 5.75 C2 7 2 7 2.6875 9 C2.790625 9.66 2.89375 10.32 3 11 C3.33 11.66 3.66 12.32 4 13 C0.96147295 11.59023295 -1.5939595 9.91129772 -4.25 7.875 C-4.95640625 7.33617187 -5.6628125 6.79734375 -6.390625 6.2421875 C-6.92171875 5.83226562 -7.4528125 5.42234375 -8 5 C-3.16129032 0 -3.16129032 0 0 0 Z " fill="#F3D9EA" transform="translate(85,342)"/>
<path d="M0 0 C0.33 0.66 0.66 1.32 1 2 C0.67 2.66 0.34 3.32 0 4 C-0.66 4 -1.32 4 -2 4 C-2.268125 4.639375 -2.53625 5.27875 -2.8125 5.9375 C-4 8 -4 8 -7 9 C-8.20882096 11.00016466 -8.20882096 11.00016466 -9 13 C-9.66 12.34 -10.32 11.68 -11 11 C-11.99 11 -12.98 11 -14 11 C-12.04364894 9.35175927 -10.08504561 7.70633688 -8.125 6.0625 C-7.56941406 5.59392578 -7.01382812 5.12535156 -6.44140625 4.64257812 C-2.2265625 1.11328125 -2.2265625 1.11328125 0 0 Z " fill="#F7E9E9" transform="translate(327,259)"/>
<path d="M0 0 C0 3 0 3 -2.5 5.75 C-4.90169385 8.44260324 -4.9978416 8.9732358 -5.3125 12.875 C-5.209375 13.90625 -5.10625 14.9375 -5 16 C-6.65 16.33 -8.3 16.66 -10 17 C-10.33 16.34 -10.66 15.68 -11 15 C-11.99 15.495 -11.99 15.495 -13 16 C-11.3383196 11.87582937 -8.37661982 8.93445961 -5.375 5.75 C-4.859375 5.19570312 -4.34375 4.64140625 -3.8125 4.0703125 C-2.54574965 2.7097288 -1.27342185 1.35434163 0 0 Z " fill="#EDD9E6" transform="translate(68,159)"/>
<path d="M0 0 C-0.66 1.32 -1.32 2.64 -2 4 C-2.99 4 -3.98 4 -5 4 C-5 4.66 -5 5.32 -5 6 C-9.74354436 8.22656164 -13.72250715 9.46148032 -19 10 C-16.27691872 6.73431212 -12.68403698 5.13812687 -8.9375 3.3125 C-7.98133789 2.83200195 -7.98133789 2.83200195 -7.00585938 2.34179688 C-2.26734075 0 -2.26734075 0 0 0 Z " fill="#E9B73C" transform="translate(347,205)"/>
<path d="M0 0 C0.99 0.66 1.98 1.32 3 2 C1.64531705 6.87685861 -0.71675909 8.48592381 -5 11 C-5.66 10.67 -6.32 10.34 -7 10 C-7 7 -7 7 -5 5 C-5 5.99 -5 6.98 -5 8 C-4.731875 7.236875 -4.46375 6.47375 -4.1875 5.6875 C-3.05575888 3.12619116 -2.08776599 1.80307062 0 0 Z " fill="#F0DBDE" transform="translate(110,292)"/>
<path d="M0 0 C0.66 0.33 1.32 0.66 2 1 C1.34 2.32 0.68 3.64 0 5 C-0.99 5 -1.98 5 -3 5 C-3.0825 5.61875 -3.165 6.2375 -3.25 6.875 C-4 9 -4 9 -5.8125 10.3125 C-8 11 -8 11 -12 10 C-8.04 6.7 -4.08 3.4 0 0 Z " fill="#F2C52E" transform="translate(79,325)"/>
<path d="M0 0 C1.32 0.33 2.64 0.66 4 1 C2.08435828 2.60540415 0.16753088 4.209355 -1.75 5.8125 C-2.55824219 6.49022461 -2.55824219 6.49022461 -3.3828125 7.18164062 C-6.20009316 9.53510069 -9.035535 11.83421368 -12 14 C-12.66 13.67 -13.32 13.34 -14 13 C-13.67 12.01 -13.34 11.02 -13 10 C-11.68 10 -10.36 10 -9 10 C-9 8.68 -9 7.36 -9 6 C-8.195625 5.87625 -7.39125 5.7525 -6.5625 5.625 C-5.716875 5.41875 -4.87125 5.2125 -4 5 C-3.67 4.34 -3.34 3.68 -3 3 C-2.01 3 -1.02 3 0 3 C0 2.01 0 1.02 0 0 Z " fill="#ECB92F" transform="translate(326,252)"/>
<path d="M0 0 C-6.75 4 -6.75 4 -9 4 C-9 4.66 -9 5.32 -9 6 C-7.68 6.33 -6.36 6.66 -5 7 C-5.99 8.485 -5.99 8.485 -7 10 C-7.598125 9.835 -8.19625 9.67 -8.8125 9.5 C-11.11344336 8.8885876 -11.11344336 8.8885876 -14 9 C-13.8046875 7.20703125 -13.8046875 7.20703125 -13 5 C-10.8203125 3.26171875 -10.8203125 3.26171875 -8.125 1.6875 C-7.24070312 1.15511719 -6.35640625 0.62273437 -5.4453125 0.07421875 C-3 -1 -3 -1 0 0 Z " fill="#EFD7E6" transform="translate(99,140)"/>
<path d="M0 0 C3.0109362 2.0072908 3.63016497 2.83884224 5 6 C5.763125 5.79375 6.52625 5.5875 7.3125 5.375 C10 5 10 5 13 7 C10.75 9.0625 10.75 9.0625 8 11 C5.96875 10.8671875 5.96875 10.8671875 4 10 C2.734375 8.22265625 2.734375 8.22265625 1.75 6.0625 C1.41484375 5.35222656 1.0796875 4.64195312 0.734375 3.91015625 C0 2 0 2 0 0 Z " fill="#E2B135" transform="translate(243,304)"/>
<path d="M0 0 C0.66 1.98 1.32 3.96 2 6 C1.34 6 0.68 6 0 6 C-0.33 5.34 -0.66 4.68 -1 4 C-1.99 5.485 -1.99 5.485 -3 7 C-3.33 6.34 -3.66 5.68 -4 5 C-6.64 5.66 -9.28 6.32 -12 7 C-5.18421053 0 -5.18421053 0 0 0 Z " fill="#EDC036" transform="translate(252,195)"/>
<path d="M0 0 C0.66 0.33 1.32 0.66 2 1 C-3.77341437 5.21175311 -9.39214514 9.21774532 -16 12 C-16.99 11.67 -17.98 11.34 -19 11 C-18.28972656 10.68546875 -17.57945312 10.3709375 -16.84765625 10.046875 C-15.92855469 9.61890625 -15.00945312 9.1909375 -14.0625 8.75 C-13.14597656 8.33234375 -12.22945313 7.9146875 -11.28515625 7.484375 C-8.83550383 6.21446051 -8.83550383 6.21446051 -8.18359375 3.828125 C-8.12300781 3.22484375 -8.06242187 2.6215625 -8 2 C-6.2984375 1.7834375 -6.2984375 1.7834375 -4.5625 1.5625 C-1.19222799 1.38828522 -1.19222799 1.38828522 0 0 Z " fill="#E5C6DB" transform="translate(411,282)"/>
<path d="M0 0 C-0.66 0 -1.32 0 -2 0 C-2 0.66 -2 1.32 -2 2 C-1.34 2.33 -0.68 2.66 0 3 C-1.65 3.33 -3.3 3.66 -5 4 C-5 3.34 -5 2.68 -5 2 C-5.97582031 2.30035156 -6.95164062 2.60070312 -7.95703125 2.91015625 C-9.24205183 3.29472445 -10.52721569 3.67881414 -11.8125 4.0625 C-12.45509766 4.26166016 -13.09769531 4.46082031 -13.75976562 4.66601562 C-18.66015625 6.11328125 -18.66015625 6.11328125 -22 5 C-19.58394775 4.18563413 -17.16720002 3.37344603 -14.75 2.5625 C-14.06808594 2.33240234 -13.38617188 2.10230469 -12.68359375 1.86523438 C-3.56607521 -1.18869174 -3.56607521 -1.18869174 0 0 Z " fill="#F1D3EA" transform="translate(130,129)"/>
<path d="M0 0 C-2.51830747 3.12270126 -3.7261549 3.94523098 -7.75 4.75 C-9.35875 4.87375 -9.35875 4.87375 -11 5 C-10.67 3.35 -10.34 1.7 -10 0 C-6.30458414 -0.95024979 -3.69541586 -0.95024979 0 0 Z " fill="#FCD106" transform="translate(74,340)"/>
<path d="M0 0 C0.66 0.33 1.32 0.66 2 1 C1.34 2.65 0.68 4.3 0 6 C-0.99 6 -1.98 6 -3 6 C-2.67 7.32 -2.34 8.64 -2 10 C-3.9375 9.6875 -3.9375 9.6875 -6 9 C-6.33 8.01 -6.66 7.02 -7 6 C-4.69 4.02 -2.38 2.04 0 0 Z " fill="#F9EFE8" transform="translate(400,202)"/>
<path d="M0 0 C2 1 2 1 3.0703125 4.09765625 C3.433195 5.41620757 3.78413384 6.73808633 4.125 8.0625 C4.30385742 8.7419165 4.48271484 9.42133301 4.66699219 10.12133789 C5.87090868 14.91808517 6.40071373 19.09125681 6 24 C5.67 24 5.34 24 5 24 C4.71125 22.88625 4.4225 21.7725 4.125 20.625 C3.30758671 16.99708908 3.30758671 16.99708908 1 15 C1.3158066 13.32992363 1.65190657 11.66364655 2 10 C1.70275894 7.31563332 1.70275894 7.31563332 1.0625 4.6875 C0.86785156 3.80449219 0.67320312 2.92148438 0.47265625 2.01171875 C0.23869141 1.01591797 0.23869141 1.01591797 0 0 Z " fill="#EAC8DD" transform="translate(442,181)"/>
<path d="M0 0 C2.64 0 5.28 0 8 0 C5.53113696 2.8358562 2.9005012 4.19600752 -0.5 5.75 C-1.4590625 6.19859375 -2.418125 6.6471875 -3.40625 7.109375 C-6 8 -6 8 -9 7 C-9 6.67 -9 6.34 -9 6 C-5.535 5.505 -5.535 5.505 -2 5 C-2 4.01 -2 3.02 -2 2 C-1.34 2 -0.68 2 0 2 C0 1.34 0 0.68 0 0 Z " fill="#E5AD2D" transform="translate(182,285)"/>
<path d="M0 0 C1.98 0 3.96 0 6 0 C6.33 1.65 6.66 3.3 7 5 C6.34 3.68 5.68 2.36 5 1 C3.84371094 1.66708984 3.84371094 1.66708984 2.6640625 2.34765625 C1.66117188 2.91355469 0.65828125 3.47945313 -0.375 4.0625 C-1.87160156 4.91521484 -1.87160156 4.91521484 -3.3984375 5.78515625 C-4.25695312 6.18605469 -5.11546875 6.58695312 -6 7 C-6.66 6.67 -7.32 6.34 -8 6 C-7.34 4.68 -6.68 3.36 -6 2 C-4.02 2 -2.04 2 0 2 C0 1.34 0 0.68 0 0 Z " fill="#E9B633" transform="translate(220,267)"/>
<path d="M0 0 C2.97 0.495 2.97 0.495 6 1 C6.33 1.99 6.66 2.98 7 4 C6.67 4.33 6.34 4.66 6 5 C5.95907063 7.33297433 5.95758277 9.66705225 6 12 C3.25207517 8.59780735 0 4.51535412 0 0 Z " fill="#F6E9E9" transform="translate(262,208)"/>
<path d="M0 0 C-0.33 1.32 -0.66 2.64 -1 4 C2.465 5.98 2.465 5.98 6 8 C5.01 8.495 5.01 8.495 4 9 C1.39525962 7.92591043 -1.09966038 6.79954367 -3.625 5.5625 C-4.33140625 5.22412109 -5.0378125 4.88574219 -5.765625 4.53710938 C-7.51381384 3.69845121 -9.25735686 2.85012153 -11 2 C-7.20960634 -0.12999997 -4.34263862 -0.16702456 0 0 Z " fill="#E2CCDD" transform="translate(192,188)"/>
<path d="M0 0 C0.33 0.66 0.66 1.32 1 2 C2.32 1.34 3.64 0.68 5 0 C3.33248852 3.94139078 0.77289351 6.7892812 -2 10 C-3.125 8.3125 -3.125 8.3125 -4 6 C-3.25 3.3125 -3.25 3.3125 -2 1 C-1.34 0.67 -0.68 0.34 0 0 Z " fill="#ECD9E1" transform="translate(237,172)"/>
<path d="M0 0 C0.433125 0.598125 0.86625 1.19625 1.3125 1.8125 C3.42869228 4.63629045 3.42869228 4.63629045 6 7 C8.16299211 6.77242269 8.16299211 6.77242269 10 6 C9.67 6.99 9.34 7.98 9 9 C7.02 9.33 5.04 9.66 3 10 C3 9.34 3 8.68 3 8 C1.68 7.34 0.36 6.68 -1 6 C-0.67 4.02 -0.34 2.04 0 0 Z " fill="#F0BE30" transform="translate(270,233)"/>
<path d="M0 0 C0 0.66 0 1.32 0 2 C-1.65 2.33 -3.3 2.66 -5 3 C-5.1546875 3.9590625 -5.1546875 3.9590625 -5.3125 4.9375 C-5.539375 5.618125 -5.76625 6.29875 -6 7 C-9.77200794 8.25733598 -12.25297715 8.03366148 -16 7 C-13.71070947 5.82845707 -11.41881638 4.66261926 -9.125 3.5 C-8.47402344 3.16613281 -7.82304687 2.83226562 -7.15234375 2.48828125 C-2.2265625 0 -2.2265625 0 0 0 Z " fill="#E1AF34" transform="translate(363,197)"/>
<path d="M0 0 C-3.66002197 3.05001831 -9.07851471 7 -14 7 C-13.67 6.01 -13.34 5.02 -13 4 C-12.01 4 -11.02 4 -10 4 C-9.67 3.01 -9.34 2.02 -9 1 C-6.04335481 -0.4783226 -3.25770263 -0.06032783 0 0 Z " fill="#EBBA27" transform="translate(138,311)"/>
<path d="M0 0 C0.66 0.33 1.32 0.66 2 1 C2 1.99 2 2.98 2 4 C1.401875 4.268125 0.80375 4.53625 0.1875 4.8125 C-2.0308127 5.85407364 -2.0308127 5.85407364 -3.375 7.5625 C-5.70402275 9.62278935 -7.97538534 9.6639317 -11 10 C-7.50640535 6.40365256 -3.88901869 3.16548033 0 0 Z " fill="#EBBD25" transform="translate(175,251)"/>
<path d="M0 0 C0 3.90838866 -1.50567876 5.11594107 -4 8 C-6.375 7.6875 -6.375 7.6875 -9 7 C-9.66 6.01 -10.32 5.02 -11 4 C-10.37351563 3.87882813 -9.74703125 3.75765625 -9.1015625 3.6328125 C-8.28429687 3.46523437 -7.46703125 3.29765625 -6.625 3.125 C-5.81289062 2.96257812 -5.00078125 2.80015625 -4.1640625 2.6328125 C-1.81326077 2.13341068 -1.81326077 2.13341068 0 0 Z " fill="#E5C9D9" transform="translate(219,200)"/>
<path d="M0 0 C0.66 0.33 1.32 0.66 2 1 C1.01 2.485 1.01 2.485 0 4 C0.66 4.33 1.32 4.66 2 5 C-3.17578125 8.22265625 -3.17578125 8.22265625 -5 9 C-5.99 8.67 -6.98 8.34 -8 8 C-5.58443874 4.80800833 -3.31996462 2.25283313 0 0 Z " fill="#EEC338" transform="translate(44,352)"/>
<path d="M0 0 C4.875 4.625 4.875 4.625 6 8 C5.01 8.33 4.02 8.66 3 9 C2.67 8.34 2.34 7.68 2 7 C2.33 6.34 2.66 5.68 3 5 C1.68 5.99 0.36 6.98 -1 8 C-1.66 7.67 -2.32 7.34 -3 7 C-1.125 2.25 -1.125 2.25 0 0 Z " fill="#F3E9E8" transform="translate(227,309)"/>
<path d="M0 0 C0 0.66 0 1.32 0 2 C-3.82517513 4.39073445 -7.59665524 4.55966552 -12 5 C-11.67 4.34 -11.34 3.68 -11 3 C-11.66 2.34 -12.32 1.68 -13 1 C-8.59085217 -0.10228696 -4.51617599 -0.07654536 0 0 Z " fill="#F9CC19" transform="translate(304,272)"/>
<path d="M0 0 C1.98 0 3.96 0 6 0 C6.33 0.99 6.66 1.98 7 3 C4.69 4.65 2.38 6.3 0 8 C-0.79953138 4.71303767 -1.09658936 3.28976808 0 0 Z " fill="#F2C31A" transform="translate(393,196)"/>
<path d="M0 0 C0.99 0.495 0.99 0.495 2 1 C1.01 1.495 1.01 1.495 0 2 C0 1.34 0 0.68 0 0 Z M-9 2 C-7.948125 2.185625 -6.89625 2.37125 -5.8125 2.5625 C-2.42880118 2.95079331 -0.23574112 2.88247485 3 2 C2.67 3.98 2.34 5.96 2 8 C-2.04256383 6.77782954 -5.49288959 5.37245704 -9 3 C-9 2.67 -9 2.34 -9 2 Z " fill="#ECDBE5" transform="translate(98,353)"/>
<path d="M0 0 C-7.2 6 -7.2 6 -12 6 C-12 5.34 -12 4.68 -12 4 C-11.34 4 -10.68 4 -10 4 C-10 3.01 -10 2.02 -10 1 C-6.42181037 -1.33958553 -4.07775191 -0.9267618 0 0 Z " fill="#F7EFE9" transform="translate(95,340)"/>
<path d="M0 0 C0.66 0.33 1.32 0.66 2 1 C1.401875 1.556875 0.80375 2.11375 0.1875 2.6875 C-1.9863446 4.98556429 -3.46898083 7.24416549 -5 10 C-6.65 9.67 -8.3 9.34 -10 9 C-6.83047153 5.73991357 -3.60062011 2.77762123 0 0 Z " fill="#FAE7E6" transform="translate(285,291)"/>
<path d="M0 0 C0 4.07546013 -1.55304448 5.80536362 -4 9 C-6.25 10.375 -6.25 10.375 -8 11 C-8 10.34 -8 9.68 -8 9 C-8.66 8.67 -9.32 8.34 -10 8 C-9.36191406 7.50628906 -8.72382813 7.01257813 -8.06640625 6.50390625 C-7.24011719 5.86324219 -6.41382813 5.22257813 -5.5625 4.5625 C-4.73878906 3.92441406 -3.91507812 3.28632813 -3.06640625 2.62890625 C-1.12498733 1.16417803 -1.12498733 1.16417803 0 0 Z " fill="#EFD6E6" transform="translate(378,228)"/>
<path d="M0 0 C1.32 0.33 2.64 0.66 4 1 C2.92781799 2.01194706 1.84173622 3.00918057 0.75 4 C-0.15492188 4.8353125 -0.15492188 4.8353125 -1.078125 5.6875 C-3 7 -3 7 -7 7 C-7.99 5.68 -8.98 4.36 -10 3 C-6.7 3 -3.4 3 0 3 C0 2.01 0 1.02 0 0 Z " fill="#F1C028" transform="translate(356,229)"/>
<path d="M0 0 C3.81684226 1.55500981 6.19195732 4.03595495 9 7 C7.68 7 6.36 7 5 7 C5 6.01 5 5.02 5 4 C4.34 4 3.68 4 3 4 C2.67 4.66 2.34 5.32 2 6 C1.34 5.67 0.68 5.34 0 5 C0 5.66 0 6.32 0 7 C-0.66 6.67 -1.32 6.34 -2 6 C-2 5.01 -2 4.02 -2 3 C-1.34 3 -0.68 3 0 3 C0 2.01 0 1.02 0 0 Z " fill="#F2E0EE" transform="translate(410,142)"/>
<path d="M0 0 C2.56269497 1.04109483 4.02610343 2.02610343 6 4 C4.35 5.32 2.7 6.64 1 8 C0.34 7.67 -0.32 7.34 -1 7 C-1.625 3.9375 -1.625 3.9375 -2 1 C-1.34 0.67 -0.68 0.34 0 0 Z " fill="#F4E9E4" transform="translate(91,305)"/>
<path d="M0 0 C3.3 0 6.6 0 10 0 C6.78660465 2.14226357 4.43016168 2.77027449 0.6875 3.625 C-0.97732422 4.01558594 -0.97732422 4.01558594 -2.67578125 4.4140625 C-5.86510743 4.9762234 -8.77023409 5.10749599 -12 5 C-12 4.67 -12 4.34 -12 4 C-11.21753906 3.87882812 -10.43507813 3.75765625 -9.62890625 3.6328125 C-8.11103516 3.38144531 -8.11103516 3.38144531 -6.5625 3.125 C-5.55316406 2.96257812 -4.54382813 2.80015625 -3.50390625 2.6328125 C-2.67761719 2.42398437 -1.85132813 2.21515625 -1 2 C-0.67 1.34 -0.34 0.68 0 0 Z " fill="#E8C8E1" transform="translate(377,296)"/>
<path d="M0 0 C0.66 0.33 1.32 0.66 2 1 C2 2.98 2 4.96 2 7 C1.34 7 0.68 7 0 7 C0 7.99 0 8.98 0 10 C-0.66 10 -1.32 10 -2 10 C-2.6875 6.6875 -2.6875 6.6875 -3 3 C-1.5625 1.0625 -1.5625 1.0625 0 0 Z " fill="#F4EEF1" transform="translate(99,274)"/>
<path d="M0 0 C0.99 0.99 1.98 1.98 3 3 C0.01767477 6.32643967 -2.86370087 8.29152862 -7 10 C-7.66 9.67 -8.32 9.34 -9 9 C-8.67 8.34 -8.34 7.68 -8 7 C-6.68 7 -5.36 7 -4 7 C-3.71125 6.401875 -3.4225 5.80375 -3.125 5.1875 C-2 3 -2 3 0 0 Z " fill="#EEDDE1" transform="translate(426,156)"/>
<path d="M0 0 C3.59634744 3.49359465 6.83451967 7.11098131 10 11 C9.67 11.66 9.34 12.32 9 13 C4.31326373 10.9170061 2.79393923 8.28595007 0.69921875 3.83984375 C0 2 0 2 0 0 Z " fill="#F1D2E7" transform="translate(233,317)"/>
<path d="M0 0 C1.65 0 3.3 0 5 0 C1.88983545 3.28788824 -1.01618925 5.83735988 -5 8 C-6.125 4.25 -6.125 4.25 -5 2 C-3.68 2.66 -2.36 3.32 -1 4 C-0.67 2.68 -0.34 1.36 0 0 Z " fill="#F3C126" transform="translate(277,289)"/>
<path d="M0 0 C0.33 0.66 0.66 1.32 1 2 C0.34 1.67 -0.32 1.34 -1 1 C-0.67 0.67 -0.34 0.34 0 0 Z M-2 2 C-1.34 2.33 -0.68 2.66 0 3 C0 3.99 0 4.98 0 6 C-0.99 6.33 -1.98 6.66 -3 7 C-3 7.66 -3 8.32 -3 9 C-4.65 8.67 -6.3 8.34 -8 8 C-8 7.34 -8 6.68 -8 6 C-7.34 6 -6.68 6 -6 6 C-6 5.34 -6 4.68 -6 4 C-4.125 2.9375 -4.125 2.9375 -2 2 Z " fill="#FDD307" transform="translate(425,172)"/>
<path d="M0 0 C-1.64802051 3.29604103 -4.67745578 3.77590476 -8 5 C-8.66 4.67 -9.32 4.34 -10 4 C-7.53453745 -1.4592385 -5.69047474 -1.11335375 0 0 Z " fill="#FCD125" transform="translate(54,352)"/>
<path d="M0 0 C0.66 0.33 1.32 0.66 2 1 C0.50871999 4.79598549 -1.65733441 6.71720399 -5 9 C-5.99 9 -6.98 9 -8 9 C-8 8.01 -8 7.02 -8 6 C-6.25 4.39453125 -6.25 4.39453125 -4 2.8125 C-3.2575 2.28269531 -2.515 1.75289063 -1.75 1.20703125 C-1.1725 0.80871094 -0.595 0.41039062 0 0 Z " fill="#EFC22B" transform="translate(123,291)"/>
<path d="M0 0 C0.66 0.33 1.32 0.66 2 1 C0.71937515 2.7074998 -0.61767557 4.37373596 -2 6 C-2.66 6 -3.32 6 -4 6 C-4 6.66 -4 7.32 -4 8 C-6.31 8.66 -8.62 9.32 -11 10 C-7.50640535 6.40365256 -3.88901869 3.16548033 0 0 Z " fill="#E4B239" transform="translate(216,219)"/>
<path d="M0 0 C-0.99 0.495 -0.99 0.495 -2 1 C-2 1.99 -2 2.98 -2 4 C-10.03571429 6.27678571 -10.03571429 6.27678571 -14 5 C-12.23628182 3.96692229 -10.46374967 2.94887951 -8.6875 1.9375 C-7.70136719 1.36902344 -6.71523438 0.80054688 -5.69921875 0.21484375 C-3 -1 -3 -1 0 0 Z " fill="#E3AF2E" transform="translate(425,167)"/>
<path d="M0 0 C-1.25 1.5625 -1.25 1.5625 -3 3 C-5.1875 2.6875 -5.1875 2.6875 -7 2 C-7.33 3.32 -7.66 4.64 -8 6 C-8.66 6 -9.32 6 -10 6 C-10 5.34 -10 4.68 -10 4 C-10.66 4 -11.32 4 -12 4 C-12 3.34 -12 2.68 -12 2 C-10.56656 1.46809459 -9.12804633 0.94984742 -7.6875 0.4375 C-6.48673828 0.00244141 -6.48673828 0.00244141 -5.26171875 -0.44140625 C-3 -1 -3 -1 0 0 Z " fill="#FCCD11" transform="translate(292,237)"/>
<path d="M0 0 C0.66 0.33 1.32 0.66 2 1 C2.99 0.7215625 2.99 0.7215625 4 0.4375 C4.66 0.293125 5.32 0.14875 6 0 C6.66 0.66 7.32 1.32 8 2 C2.65745311 5.03553801 2.65745311 5.03553801 -0.3125 4.875 C-2 4 -2 4 -3 1 C-2.01 0.67 -1.02 0.34 0 0 Z " fill="#FAE9E9" transform="translate(277,231)"/>
<path d="M0 0 C0.66 0.33 1.32 0.66 2 1 C0.84826645 3.46800047 -0.04783565 5.04783565 -2 7 C-4.625 7.625 -4.625 7.625 -7 8 C-5.50902342 4.2047869 -3.24299151 2.38957269 0 0 Z " fill="#FAEBE2" transform="translate(391,209)"/>
<path d="M0 0 C0.66 0 1.32 0 2 0 C1.67 1.65 1.34 3.3 1 5 C0.34 5 -0.32 5 -1 5 C-1.33 5.99 -1.66 6.98 -2 8 C-3.65 7.67 -5.3 7.34 -7 7 C-4.66666667 4.66666667 -2.33333333 2.33333333 0 0 Z " fill="#F7E7E8" transform="translate(414,191)"/>
<path d="M0 0 C0.66 0.33 1.32 0.66 2 1 C1.67 1.66 1.34 2.32 1 3 C0.01 3 -0.98 3 -2 3 C-2.66 4.32 -3.32 5.64 -4 7 C-6.31 7 -8.62 7 -11 7 C-8.84658594 4.65082102 -6.78332063 3.17556996 -3.9375 1.75 C-3.24527344 1.39421875 -2.55304688 1.0384375 -1.83984375 0.671875 C-1.23269531 0.45015625 -0.62554687 0.2284375 0 0 Z " fill="#F7EDDD" transform="translate(117,325)"/>
<path d="M0 0 C0 3 0 3 -1 6 C-3.3125 7.75 -3.3125 7.75 -6 9 C-7.32 8.67 -8.64 8.34 -10 8 C-6.7 5.36 -3.4 2.72 0 0 Z " fill="#EBBC34" transform="translate(228,210)"/>
<path d="M0 0 C-1.47687532 1.16956591 -2.95656293 2.33558146 -4.4375 3.5 C-5.67306641 4.47453125 -5.67306641 4.47453125 -6.93359375 5.46875 C-9 7 -9 7 -10 7 C-10 5.02 -10 3.04 -10 1 C-9.67 1.66 -9.34 2.32 -9 3 C-8.34 3 -7.68 3 -7 3 C-7 2.34 -7 1.68 -7 1 C-3.375 -1.125 -3.375 -1.125 0 0 Z " fill="#F0BD31" transform="translate(386,210)"/>
<path d="M0 0 C0 0.99 0 1.98 0 3 C-1.65 3.33 -3.3 3.66 -5 4 C-5 4.99 -5 5.98 -5 7 C-7.31 7.66 -9.62 8.32 -12 9 C-3.25 0 -3.25 0 0 0 Z " fill="#EABB32" transform="translate(58,343)"/>
<path d="M0 0 C0.99 0.66 1.98 1.32 3 2 C-2.75 7 -2.75 7 -5 7 C-5.625 5.125 -5.625 5.125 -6 3 C-5.34 2.34 -4.68 1.68 -4 1 C-4 1.66 -4 2.32 -4 3 C-2.68 2.01 -1.36 1.02 0 0 Z " fill="#F2E5E6" transform="translate(87,312)"/>
<path d="M0 0 C0.66 0.33 1.32 0.66 2 1 C-1.27429093 5.33362035 -3.76986166 8.02416996 -9 10 C-9.66 9.67 -10.32 9.34 -11 9 C-7.37 6.03 -3.74 3.06 0 0 Z " fill="#E9B342" transform="translate(101,308)"/>
<path d="M0 0 C0.99 0.33 1.98 0.66 3 1 C1.02 5.455 1.02 5.455 -1 10 C-3 7 -3 7 -2.75 4.4375 C-2 2 -2 2 0 0 Z " fill="#F9EEEA" transform="translate(263,308)"/>
<path d="M0 0 C1.98 0.66 3.96 1.32 6 2 C2.8745041 4.64465038 -0.08788267 5.84414715 -4 7 C-4 6.01 -4 5.02 -4 4 C-3.01 3.34 -2.02 2.68 -1 2 C-0.67 1.34 -0.34 0.68 0 0 Z " fill="#F0BF28" transform="translate(94,328)"/>
<path d="M0 0 C3.96 0 7.92 0 12 0 C12 0.66 12 1.32 12 2 C6.25 3.125 6.25 3.125 4 2 C4 2.66 4 3.32 4 4 C3.01 4 2.02 4 1 4 C0.67 2.68 0.34 1.36 0 0 Z " fill="#F6F5EC" transform="translate(137,315)"/>
<path d="M0 0 C0.66 0.33 1.32 0.66 2 1 C1.2890625 2.953125 1.2890625 2.953125 0 5 C-2.1640625 5.609375 -2.1640625 5.609375 -4.625 5.75 C-5.44226563 5.80671875 -6.25953125 5.8634375 -7.1015625 5.921875 C-7.72804688 5.94765625 -8.35453125 5.9734375 -9 6 C-3.30379747 1.25316456 -3.30379747 1.25316456 0 0 Z " fill="#E7B43B" transform="translate(325,215)"/>
<path d="M0 0 C-0.66 0 -1.32 0 -2 0 C-2 0.66 -2 1.32 -2 2 C-3.96147874 3.38938077 -5.96166576 4.7260411 -8 6 C-8.99 5.01 -9.98 4.02 -11 3 C-9.73581754 2.30034557 -8.46334598 1.61565237 -7.1875 0.9375 C-6.47980469 0.55464844 -5.77210938 0.17179688 -5.04296875 -0.22265625 C-3 -1 -3 -1 0 0 Z " fill="#E8B938" transform="translate(374,193)"/>
<path d="M0 0 C0 0.66 0 1.32 0 2 C-1.98 2.99 -1.98 2.99 -4 4 C-4 4.66 -4 5.32 -4 6 C-6.64 6 -9.28 6 -12 6 C-8.59780735 3.25207517 -4.51535412 0 0 0 Z " fill="#E4B03B" transform="translate(411,173)"/>
<path d="M0 0 C-4.455 3.465 -4.455 3.465 -9 7 C-9.66 6.67 -10.32 6.34 -11 6 C-8.91600292 0.50582589 -5.67790724 -1.41947681 0 0 Z " fill="#DEAD31" transform="translate(437,171)"/>
<path d="M0 0 C-1.62249941 0.83819158 -3.24808497 1.6704116 -4.875 2.5 C-6.23238281 3.19609375 -6.23238281 3.19609375 -7.6171875 3.90625 C-10 5 -10 5 -12 5 C-12.33 4.01 -12.66 3.02 -13 2 C-11.35 2 -9.7 2 -8 2 C-8 1.34 -8 0.68 -8 0 C-4.71303767 -0.79953138 -3.28976808 -1.09658936 0 0 Z " fill="#E3AE33" transform="translate(212,275)"/>
<path d="M0 0 C3.06393013 -0.25532751 4.63233212 -0.21861333 7.3125 1.375 C7.869375 1.91125 8.42625 2.4475 9 3 C9 3.66 9 4.32 9 5 C9.33 5.66 9.66 6.32 10 7 C5.56541027 5.6062718 3.12621626 3.39417765 0 0 Z " fill="#E3C0D4" transform="translate(198,197)"/>
<path d="M0 0 C0.99 0.66 1.98 1.32 3 2 C-3.89715536 6.07877462 -3.89715536 6.07877462 -8.5 5.75 C-9.325 5.5025 -10.15 5.255 -11 5 C-11 4.67 -11 4.34 -11 4 C-8.69 4 -6.38 4 -4 4 C-3.67 3.01 -3.34 2.02 -3 1 C-2.01 0.67 -1.02 0.34 0 0 Z " fill="#F1D6DF" transform="translate(376,184)"/>
<path d="M0 0 C0.66 0.33 1.32 0.66 2 1 C-2.455 4.465 -2.455 4.465 -7 8 C-8.32 7.34 -9.64 6.68 -11 6 C-9.21385682 4.96953278 -7.42089982 3.95086764 -5.625 2.9375 C-4.62726563 2.36902344 -3.62953125 1.80054688 -2.6015625 1.21484375 C-1.74304688 0.81394531 -0.88453125 0.41304687 0 0 Z " fill="#F5C55B" transform="translate(466,145)"/>
<path d="M0 0 C2.87255066 2.42195448 3.70838919 4.59742703 4.6875 8.1875 C4.93886719 9.08855469 5.19023437 9.98960937 5.44921875 10.91796875 C5.63097656 11.60503906 5.81273437 12.29210937 6 13 C5.01 13 4.02 13 3 13 C0.78145293 8.37802694 -0.38281159 5.23175837 0 0 Z " fill="#F5C62E" transform="translate(259,211)"/>
<path d="M0 0 C0.99 0.66 1.98 1.32 3 2 C1.37750059 2.83819158 -0.24808497 3.6704116 -1.875 4.5 C-3.23238281 5.19609375 -3.23238281 5.19609375 -4.6171875 5.90625 C-7 7 -7 7 -9 7 C-8 4 -8 4 -6 2 C-2.875 1.875 -2.875 1.875 0 2 C0 1.34 0 0.68 0 0 Z " fill="#F2DCDE" transform="translate(313,216)"/>
<path d="M0 0 C0.33 0.66 0.66 1.32 1 2 C1.66 2 2.32 2 3 2 C2.67 2.99 2.34 3.98 2 5 C1.34 5 0.68 5 0 5 C-0.28875 5.61875 -0.5775 6.2375 -0.875 6.875 C-2 9 -2 9 -4 11 C-3.39301257 6.87248551 -1.96189209 3.6678852 0 0 Z " fill="#F0D8E5" transform="translate(42,194)"/>
<path d="M0 0 C1.32 0 2.64 0 4 0 C2.73058503 3.91402949 1.48832306 5.79072873 -2 8 C-3 5 -3 5 -1.8125 2.3125 C-1.214375 1.549375 -0.61625 0.78625 0 0 Z " fill="#EAD5DE" transform="translate(244,164)"/>
<path d="M0 0 C2.31 0 4.62 0 7 0 C3.4912812 3.09592835 0.50802601 4.74194623 -4 6 C-3.34 4.68 -2.68 3.36 -2 2 C-1.01 2.33 -0.02 2.66 1 3 C0.67 2.01 0.34 1.02 0 0 Z " fill="#F0DBEA" transform="translate(221,356)"/>
<path d="M0 0 C0.66 0 1.32 0 2 0 C1.8125 2.375 1.8125 2.375 1 5 C-1.5625 6.3125 -1.5625 6.3125 -4 7 C-4.33 5.35 -4.66 3.7 -5 2 C-2 2 -2 2 0 3 C0 2.01 0 1.02 0 0 Z " fill="#F2F9F1" transform="translate(66,322)"/>
<path d="M0 0 C1.65 0.33 3.3 0.66 5 1 C5 3 5 3 3.875 4.5625 C1.36053022 6.49026016 -0.89545967 6.65505107 -4 7 C-3.525625 6.5875 -3.05125 6.175 -2.5625 5.75 C-0.83733482 3.817815 -0.43415125 2.51807725 0 0 Z " fill="#F4E8EE" transform="translate(391,289)"/>
<path d="M0 0 C-4.455 2.97 -4.455 2.97 -9 6 C-9.33 4.68 -9.66 3.36 -10 2 C-4.5 -1.125 -4.5 -1.125 0 0 Z " fill="#EEBB3F" transform="translate(292,283)"/>
<path d="M0 0 C0.33 0.66 0.66 1.32 1 2 C0.01 2.495 0.01 2.495 -1 3 C-1.33 3.99 -1.66 4.98 -2 6 C-2.99 6.66 -3.98 7.32 -5 8 C-6.32 7.67 -7.64 7.34 -9 7 C-6.03 4.69 -3.06 2.38 0 0 Z " fill="#E8B82A" transform="translate(143,276)"/>
<path d="M0 0 C0.99 0.33 1.98 0.66 3 1 C0.19195732 3.96404505 -2.18315774 6.44499019 -6 8 C-6 7.01 -6 6.02 -6 5 C-5.34 5 -4.68 5 -4 5 C-4 4.34 -4 3.68 -4 3 C-2.68 3 -1.36 3 0 3 C0 2.01 0 1.02 0 0 Z " fill="#F1BD31" transform="translate(336,244)"/>
<path d="M0 0 C2.475 0.99 2.475 0.99 5 2 C4.67 2.99 4.34 3.98 4 5 C2.02 5 0.04 5 -2 5 C-1.34 3.35 -0.68 1.7 0 0 Z " fill="#FBD004" transform="translate(429,166)"/>
<path d="M0 0 C-0.99 0.495 -0.99 0.495 -2 1 C-2 1.99 -2 2.98 -2 4 C-3.8125 4.6875 -3.8125 4.6875 -6 5 C-7.75 3.5625 -7.75 3.5625 -9 2 C-3.375 -1.125 -3.375 -1.125 0 0 Z " fill="#EFDDEA" transform="translate(108,136)"/>
<path d="M0 0 C2.1875 0.3125 2.1875 0.3125 4 1 C3.34 1 2.68 1 2 1 C3.32 2.65 4.64 4.3 6 6 C2.26512223 5.5020163 0.18762365 5.12508244 -3 3 C-1.75 1.4375 -1.75 1.4375 0 0 Z " fill="#E9D9E4" transform="translate(112,362)"/>
<path d="M0 0 C2.75383923 1.37691962 3.51483101 3.36720042 5 6 C2.03 5.505 2.03 5.505 -1 5 C-1 4.34 -1 3.68 -1 3 C-1.99 2.67 -2.98 2.34 -4 2 C-2.125 0.9375 -2.125 0.9375 0 0 Z " fill="#F0EDE7" transform="translate(123,322)"/>
<path d="M0 0 C0.66 0.33 1.32 0.66 2 1 C1.4375 2.875 1.4375 2.875 0 5 C-3.625 6.25 -3.625 6.25 -7 7 C-4.66666667 4.66666667 -2.33333333 2.33333333 0 0 Z " fill="#ECB532" transform="translate(132,284)"/>
<path d="M0 0 C2.0625 0.4375 2.0625 0.4375 4 1 C3.01 1 2.02 1 1 1 C0.67 2.32 0.34 3.64 0 5 C-1.98 5.33 -3.96 5.66 -6 6 C-4 4 -2 2 0 0 Z " fill="#F9E7EB" transform="translate(351,240)"/>
<path d="M0 0 C3.44216672 2.6598561 3.99504674 5.90288286 5 10 C3 10 3 10 1.375 8.9375 C-0.68369484 6.03661182 -0.19557733 3.45519943 0 0 Z " fill="#EEBB35" transform="translate(254,201)"/>
<path d="M0 0 C0.66 0.33 1.32 0.66 2 1 C-0.65654657 4.73884332 -2.58110387 6.64978174 -7 8 C-5.50902342 4.2047869 -3.24299151 2.38957269 0 0 Z " fill="#CE9662" transform="translate(37,357)"/>
<path d="M0 0 C1.98 0 3.96 0 6 0 C3.11861791 2.24107496 0.25320657 4.33168894 -3 6 C-3.99 5.67 -4.98 5.34 -6 5 C-4.68 4.67 -3.36 4.34 -2 4 C-2 3.34 -2 2.68 -2 2 C-1.34 2 -0.68 2 0 2 C0 1.34 0 0.68 0 0 Z " fill="#E7B22A" transform="translate(84,335)"/>
<path d="M0 0 C1.98 0 3.96 0 6 0 C2.8745041 2.64465038 -0.08788267 3.84414715 -4 5 C-4 4.01 -4 3.02 -4 2 C-2.68 2 -1.36 2 0 2 C0 1.34 0 0.68 0 0 Z " fill="#E6B12C" transform="translate(144,305)"/>
<path d="M0 0 C0.66 0.33 1.32 0.66 2 1 C2 2.65 2 4.3 2 6 C0.02 6.99 0.02 6.99 -2 8 C-1.125 1.125 -1.125 1.125 0 0 Z " fill="#EEC21E" transform="translate(258,302)"/>
<path d="M0 0 C0.99 1.32 1.98 2.64 3 4 C0 6 0 6 -2.6875 5.625 C-3.450625 5.41875 -4.21375 5.2125 -5 5 C-4.67 4.34 -4.34 3.68 -4 3 C-3.34 3 -2.68 3 -2 3 C-2 2.34 -2 1.68 -2 1 C-1.34 0.67 -0.68 0.34 0 0 Z " fill="#FCD115" transform="translate(146,275)"/>
<path d="M0 0 C3.875 1.75 3.875 1.75 5 4 C3.02 4.66 1.04 5.32 -1 6 C-1.625 4.125 -1.625 4.125 -2 2 C-1.34 1.34 -0.68 0.68 0 0 Z " fill="#F8ECED" transform="translate(307,274)"/>
<path d="M0 0 C0.66 0.33 1.32 0.66 2 1 C0.02 3.31 -1.96 5.62 -4 8 C-5.32 7.67 -6.64 7.34 -8 7 C-5.36 4.69 -2.72 2.38 0 0 Z " fill="#E5B72D" transform="translate(185,243)"/>
<path d="M0 0 C0 0.66 0 1.32 0 2 C-2.90567134 4.01782732 -5.51669784 5.35494404 -9 6 C-8.3125 3.5625 -8.3125 3.5625 -7 1 C-4.54115028 0.20087384 -2.56909202 0 0 0 Z " fill="#FDD11E" transform="translate(334,213)"/>
<path d="M0 0 C0.66 0.33 1.32 0.66 2 1 C0.9375 3.375 0.9375 3.375 -1 6 C-4.6875 7.3125 -4.6875 7.3125 -8 8 C-5.33333333 5.33333333 -2.66666667 2.66666667 0 0 Z " fill="#EAB63B" transform="translate(238,202)"/>
<path d="M0 0 C0.99 0.33 1.98 0.66 3 1 C0.6875 3.5 0.6875 3.5 -2 6 C-2.99 6 -3.98 6 -5 6 C-4.67 4.68 -4.34 3.36 -4 2 C-2.68 2 -1.36 2 0 2 C0 1.34 0 0.68 0 0 Z " fill="#EAB72E" transform="translate(405,191)"/>
<path d="M0 0 C-1.45264038 0.8638129 -2.9123163 1.71580454 -4.375 2.5625 C-5.59316406 3.27599609 -5.59316406 3.27599609 -6.8359375 4.00390625 C-7.55007812 4.33261719 -8.26421875 4.66132813 -9 5 C-9.66 4.67 -10.32 4.34 -11 4 C-10.01 3.67 -9.02 3.34 -8 3 C-8 2.01 -8 1.02 -8 0 C-4.90645403 -0.99435406 -3.09720845 -0.87840996 0 0 Z " fill="#E5B429" transform="translate(64,349)"/>
<path d="M0 0 C0.66 0.33 1.32 0.66 2 1 C1.4375 2.875 1.4375 2.875 0 5 C-3.625 6.25 -3.625 6.25 -7 7 C-4.66666667 4.66666667 -2.33333333 2.33333333 0 0 Z " fill="#E2AC39" transform="translate(79,325)"/>
<path d="M0 0 C0.66 0.33 1.32 0.66 2 1 C0.875 3.4375 0.875 3.4375 -1 6 C-4.1875 6.8125 -4.1875 6.8125 -7 7 C-4.66666667 4.66666667 -2.33333333 2.33333333 0 0 Z " fill="#E7B439" transform="translate(88,318)"/>
<path d="M0 0 C0.58265625 0.22558594 1.1653125 0.45117188 1.765625 0.68359375 C1.435625 1.34359375 1.105625 2.00359375 0.765625 2.68359375 C0.1675 2.82796875 -0.430625 2.97234375 -1.046875 3.12109375 C-3.64662042 3.78959972 -5.17775445 4.99422687 -7.234375 6.68359375 C-7.894375 6.35359375 -8.554375 6.02359375 -9.234375 5.68359375 C-8.16544282 4.64769037 -7.07859012 3.63025433 -5.984375 2.62109375 C-5.38109375 2.05261719 -4.7778125 1.48414063 -4.15625 0.8984375 C-2.234375 -0.31640625 -2.234375 -0.31640625 0 0 Z " fill="#DABAD2" transform="translate(214.234375,291.31640625)"/>
<path d="M0 0 C0 4.38968456 -2.12805101 5.76905739 -5 9 C-6.231394 6.53721199 -6.07159196 4.7204945 -6 2 C-4.7934375 1.7834375 -4.7934375 1.7834375 -3.5625 1.5625 C-1.07896294 1.25864751 -1.07896294 1.25864751 0 0 Z " fill="#E8C9DD" transform="translate(226,191)"/>
<path d="M0 0 C0 0.99 0 1.98 0 3 C-0.61875 3.28875 -1.2375 3.5775 -1.875 3.875 C-4.13325765 4.93720042 -4.13325765 4.93720042 -6 7 C-6.66 6.01 -7.32 5.02 -8 4 C-5.36 2.68 -2.72 1.36 0 0 Z " fill="#FDD623" transform="translate(449,154)"/>
<path d="M0 0 C0 0.66 0 1.32 0 2 C-0.66 2 -1.32 2 -2 2 C-2 2.66 -2 3.32 -2 4 C-3.65 4.66 -5.3 5.32 -7 6 C-7 5.01 -7 4.02 -7 3 C-2.77777778 0 -2.77777778 0 0 0 Z " fill="#F5E1D5" transform="translate(85,342)"/>
<path d="M0 0 C1.2065625 0.0309375 1.2065625 0.0309375 2.4375 0.0625 C0.81410195 1.77134005 -0.85569053 3.43696717 -2.5625 5.0625 C-3.2225 5.0625 -3.8825 5.0625 -4.5625 5.0625 C-3.43829114 0.08386076 -3.43829114 0.08386076 0 0 Z " fill="#F1C129" transform="translate(308.5625,266.9375)"/>
<path d="M0 0 C0.33 0.99 0.66 1.98 1 3 C1.66 3.33 2.32 3.66 3 4 C-1.455 5.485 -1.455 5.485 -6 7 C-6 6.34 -6 5.68 -6 5 C-4.04072937 3.2856382 -2.04119788 1.61594832 0 0 Z " fill="#EBD0DE" transform="translate(76,152)"/>
<path d="M0 0 C0.94875 0.04125 1.8975 0.0825 2.875 0.125 C2.875 0.785 2.875 1.445 2.875 2.125 C3.865 2.455 4.855 2.785 5.875 3.125 C2.245 2.795 -1.385 2.465 -5.125 2.125 C-3.125 0.125 -3.125 0.125 0 0 Z " fill="#F0DBEC" transform="translate(138.125,370.875)"/>
<path d="M0 0 C-1.65 1.65 -3.3 3.3 -5 5 C-5.66 3.68 -6.32 2.36 -7 1 C-4.53721199 -0.231394 -2.7204945 -0.07159196 0 0 Z " fill="#F2E3E3" transform="translate(103,303)"/>
<path d="M0 0 C0.66 0.33 1.32 0.66 2 1 C-3.14285714 6.57142857 -3.14285714 6.57142857 -7 7 C-4.66666667 4.66666667 -2.33333333 2.33333333 0 0 Z " fill="#F7E3E6" transform="translate(303,277)"/>
<path d="M0 0 C0 0.99 0 1.98 0 3 C-2.5 5.1875 -2.5 5.1875 -5 7 C-5 5.02 -5 3.04 -5 1 C-3.35 0.67 -1.7 0.34 0 0 Z " fill="#EED0E9" transform="translate(430,264)"/>
<path d="M0 0 C0.66 0.33 1.32 0.66 2 1 C2 4 2 4 1 6 C-1.97 5.505 -1.97 5.505 -5 5 C-3.35 3.35 -1.7 1.7 0 0 Z " fill="#F5E7E9" transform="translate(338,250)"/>
<path d="M0 0 C1.32 0.33 2.64 0.66 4 1 C0.535 3.97 0.535 3.97 -3 7 C-3.66 6.67 -4.32 6.34 -5 6 C-4.34 5.01 -3.68 4.02 -3 3 C-2.01 3 -1.02 3 0 3 C0 2.01 0 1.02 0 0 Z " fill="#E7B33B" transform="translate(326,252)"/>
<path d="M0 0 C-0.8125 1.9375 -0.8125 1.9375 -2 4 C-2.99 4.33 -3.98 4.66 -5 5 C-5.33 3.68 -5.66 2.36 -6 1 C-4 0 -4 0 0 0 Z " fill="#FBD033" transform="translate(457,152)"/>
<path d="M0 0 C3.59391114 1.33488128 6.75490696 2.96022723 10 5 C7 6 7 6 4 5 C2.61423077 3.37667033 1.27358732 1.71275535 0 0 Z " fill="#F3D9EE" transform="translate(225,143)"/>
<path d="M0 0 C1.9375 1.25 1.9375 1.25 3.9375 4.25 C0.11652761 3.71930939 -2.12421403 2.75298434 -5.0625 0.25 C-2.0625 -0.75 -2.0625 -0.75 0 0 Z " fill="#E4CFD7" transform="translate(105.0625,360.75)"/>
<path d="M0 0 C1.70884005 1.62339805 3.37446717 3.29319053 5 5 C5 5.66 5 6.32 5 7 C3.68 7.33 2.36 7.66 1 8 C0.67 5.36 0.34 2.72 0 0 Z " fill="#F3DBE2" transform="translate(105,285)"/>
<path d="M0 0 C0.99 0.66 1.98 1.32 3 2 C1.75023244 5.65316671 1.32901247 6.78065836 -2 9 C-1.125 1.125 -1.125 1.125 0 0 Z " fill="#EBD3E0" transform="translate(433,255)"/>
<path d="M0 0 C0.99 0 1.98 0 3 0 C1.9024777 2.99324263 1.32317108 3.84610901 -1.625 5.25 C-2.40875 5.4975 -3.1925 5.745 -4 6 C-2.1875 3 -2.1875 3 0 0 Z " fill="#F2C82F" transform="translate(189,240)"/>
<path d="M0 0 C0.66 0.33 1.32 0.66 2 1 C1.67 1.33 1.34 1.66 1 2 C1.66 2.66 2.32 3.32 3 4 C1.02 4.33 -0.96 4.66 -3 5 C-2.625 3.0625 -2.625 3.0625 -2 1 C-1.34 0.67 -0.68 0.34 0 0 Z " fill="#F7EBEF" transform="translate(317,212)"/>
<path d="M0 0 C0 3 0 3 -2.5 5.6875 C-3.325 6.450625 -4.15 7.21375 -5 8 C-5.33 6.68 -5.66 5.36 -6 4 C-4.02 2.68 -2.04 1.36 0 0 Z " fill="#E2C8D4" transform="translate(233,182)"/>
<path d="M0 0 C0.33 0.99 0.66 1.98 1 3 C0.67 3.66 0.34 4.32 0 5 C-1.98 4.34 -3.96 3.68 -6 3 C-2.25 0 -2.25 0 0 0 Z " fill="#FAD104" transform="translate(439,162)"/>
<path d="M0 0 C1.32 0 2.64 0 4 0 C4 2 4 2 2.75 3.6875 C2.1725 4.120625 1.595 4.55375 1 5 C-1.1875 4.6875 -1.1875 4.6875 -3 4 C-2.67 3.01 -2.34 2.02 -2 1 C-1.67 1.33 -1.34 1.66 -1 2 C-0.67 1.34 -0.34 0.68 0 0 Z " fill="#F9D10D" transform="translate(444,158)"/>
<path d="M0 0 C3.55780196 0.60990891 6.6828589 1.5783681 10 3 C7.07175348 3.97608217 5.04386724 4.08226668 2 4 C1.34 2.68 0.68 1.36 0 0 Z " fill="#F6DCF1" transform="translate(388,131)"/>
<path d="M0 0 C0.99 0 1.98 0 3 0 C3 0.66 3 1.32 3 2 C2.34 2 1.68 2 1 2 C1 2.99 1 3.98 1 5 C-0.32 5.33 -1.64 5.66 -3 6 C-2 4 -1 2 0 0 Z " fill="#FDD016" transform="translate(179,285)"/>
<path d="M0 0 C0.66 0 1.32 0 2 0 C4 3 4 3 4 6 C3.01 6.33 2.02 6.66 1 7 C0.67 4.69 0.34 2.38 0 0 Z " fill="#F1FAEB" transform="translate(277,226)"/>
<path d="M0 0 C0.33 0.66 0.66 1.32 1 2 C1.66 2.33 2.32 2.66 3 3 C-0.75 6 -0.75 6 -3 6 C-2.625 3.5625 -2.625 3.5625 -2 1 C-1.34 0.67 -0.68 0.34 0 0 Z " fill="#F4E4E7" transform="translate(121,195)"/>
<path d="M0 0 C0 0.66 0 1.32 0 2 C-2.31 2.66 -4.62 3.32 -7 4 C-6.67 3.01 -6.34 2.02 -6 1 C-4 0 -4 0 0 0 Z " fill="#F3D8EE" transform="translate(140,188)"/>
<path d="" fill="#000000" transform="translate(0,0)"/>
<path d="" fill="#000000" transform="translate(0,0)"/>
<path d="" fill="#000000" transform="translate(0,0)"/>
<path d="" fill="#000000" transform="translate(0,0)"/>
<path d="" fill="#000000" transform="translate(0,0)"/>
<path d="" fill="#000000" transform="translate(0,0)"/>
<path d="" fill="#000000" transform="translate(0,0)"/>
<path d="" fill="#000000" transform="translate(0,0)"/>
<path d="" fill="#000000" transform="translate(0,0)"/>
<path d="" fill="#000000" transform="translate(0,0)"/>
<path d="" fill="#000000" transform="translate(0,0)"/>
<path d="" fill="#000000" transform="translate(0,0)"/>
<path d="" fill="#000000" transform="translate(0,0)"/>
<path d="" fill="#000000" transform="translate(0,0)"/>
<path d="" fill="#000000" transform="translate(0,0)"/>
<path d="" fill="#000000" transform="translate(0,0)"/>
<path d="" fill="#000000" transform="translate(0,0)"/>
<path d="" fill="#000000" transform="translate(0,0)"/>
<path d="" fill="#000000" transform="translate(0,0)"/>
<path d="" fill="#000000" transform="translate(0,0)"/>
<path d="" fill="#000000" transform="translate(0,0)"/>
<path d="" fill="#000000" transform="translate(0,0)"/>
<path d="" fill="#000000" transform="translate(0,0)"/>
<path d="" fill="#000000" transform="translate(0,0)"/>
<path d="" fill="#000000" transform="translate(0,0)"/>
<path d="" fill="#000000" transform="translate(0,0)"/>
<path d="" fill="#000000" transform="translate(0,0)"/>
<path d="" fill="#000000" transform="translate(0,0)"/>
<path d="" fill="#000000" transform="translate(0,0)"/>
<path d="" fill="#000000" transform="translate(0,0)"/>
<path d="" fill="#000000" transform="translate(0,0)"/>
<path d="" fill="#000000" transform="translate(0,0)"/>
<path d="" fill="#000000" transform="translate(0,0)"/>
<path d="" fill="#000000" transform="translate(0,0)"/>
<path d="" fill="#000000" transform="translate(0,0)"/>
<path d="" fill="#000000" transform="translate(0,0)"/>
<path d="" fill="#000000" transform="translate(0,0)"/>
<path d="" fill="#000000" transform="translate(0,0)"/>
<path d="" fill="#000000" transform="translate(0,0)"/>
<path d="" fill="#000000" transform="translate(0,0)"/>
<path d="" fill="#000000" transform="translate(0,0)"/>
<path d="" fill="#000000" transform="translate(0,0)"/>
<path d="" fill="#000000" transform="translate(0,0)"/>
<path d="" fill="#000000" transform="translate(0,0)"/>
<path d="" fill="#000000" transform="translate(0,0)"/>
<path d="" fill="#000000" transform="translate(0,0)"/>
<path d="" fill="#000000" transform="translate(0,0)"/>
<path d="" fill="#000000" transform="translate(0,0)"/>
<path d="" fill="#000000" transform="translate(0,0)"/>
<path d="" fill="#000000" transform="translate(0,0)"/>
<path d="" fill="#000000" transform="translate(0,0)"/>
<path d="" fill="#000000" transform="translate(0,0)"/>
<path d="" fill="#000000" transform="translate(0,0)"/>
<path d="" fill="#000000" transform="translate(0,0)"/>
<path d="" fill="#000000" transform="translate(0,0)"/>
<path d="" fill="#000000" transform="translate(0,0)"/>
<path d="" fill="#000000" transform="translate(0,0)"/>
<path d="" fill="#000000" transform="translate(0,0)"/>
<path d="" fill="#000000" transform="translate(0,0)"/>
<path d="" fill="#000000" transform="translate(0,0)"/>
<path d="" fill="#000000" transform="translate(0,0)"/>
<path d="" fill="#000000" transform="translate(0,0)"/>
</svg>
