<svg width="231" height="116" viewBox="0 0 231 116" fill="none" xmlns="http://www.w3.org/2000/svg">
<path d="M231 115.5C108 115.787 179.289 115.5 115.5 115.5C51.7111 115.5 115.5 115.5 0 115.5C0 51.7111 51.7111 0 115.5 0C179.289 0 231 51.7111 231 115.5Z" fill="#D9D9D9"/>
<path d="M216 115.889C109.506 116.139 171.228 115.889 116 115.889C60.7715 115.889 116 115.889 16 115.889C16 60.1694 60.7715 15 116 15C171.228 15 216 60.1694 216 115.889Z" fill="#40054C"/>
<path d="M101.044 56.9L100.404 60.84L100.464 60.86C100.744 60.5933 101.184 60.3467 101.784 60.12C102.397 59.8933 103.091 59.78 103.864 59.78C104.864 59.78 105.791 59.96 106.644 60.32C107.511 60.6667 108.204 61.2133 108.724 61.96C109.244 62.6933 109.504 63.6467 109.504 64.82C109.504 66.02 109.217 67.0333 108.644 67.86C108.071 68.6867 107.311 69.3133 106.364 69.74C105.417 70.1533 104.384 70.36 103.264 70.36C101.837 70.36 100.637 70.0267 99.6641 69.36C98.6908 68.6933 97.9975 67.8333 97.5841 66.78L98.9841 65.86C99.3975 66.62 99.9841 67.2133 100.744 67.64C101.504 68.0533 102.351 68.26 103.284 68.26C103.924 68.26 104.504 68.1333 105.024 67.88C105.544 67.6267 105.957 67.2467 106.264 66.74C106.571 66.22 106.724 65.58 106.724 64.82C106.724 63.7267 106.411 62.92 105.784 62.4C105.157 61.88 104.391 61.62 103.484 61.62C102.831 61.62 102.197 61.7933 101.584 62.14C100.984 62.4733 100.557 62.9133 100.304 63.46L97.9641 62.9L98.6641 54.4H101.464L101.344 55.04L108.244 54.4V56.9H101.044ZM117.453 70.36C116.373 70.36 115.386 70.0333 114.493 69.38C113.599 68.7267 112.886 67.7867 112.353 66.56C111.833 65.3333 111.573 63.8733 111.573 62.18C111.573 61.02 111.726 59.9467 112.033 58.96C112.339 57.9733 112.759 57.1133 113.293 56.38C113.826 55.6333 114.446 55.0533 115.153 54.64C115.873 54.2267 116.639 54.02 117.453 54.02C118.266 54.02 119.026 54.2267 119.733 54.64C120.453 55.04 121.079 55.6067 121.613 56.34C122.159 57.0733 122.586 57.94 122.893 58.94C123.199 59.9267 123.353 61.0067 123.353 62.18C123.353 63.4067 123.199 64.52 122.893 65.52C122.586 66.52 122.159 67.3867 121.613 68.12C121.079 68.84 120.453 69.3933 119.733 69.78C119.026 70.1667 118.266 70.36 117.453 70.36ZM117.453 68.26C118.106 68.26 118.666 68 119.133 67.48C119.599 66.9467 119.959 66.2267 120.213 65.32C120.466 64.4 120.593 63.3533 120.593 62.18C120.593 61.0733 120.466 60.0667 120.213 59.16C119.959 58.24 119.599 57.5067 119.133 56.96C118.666 56.4133 118.106 56.14 117.453 56.14C116.799 56.14 116.239 56.4133 115.773 56.96C115.306 57.4933 114.946 58.22 114.693 59.14C114.453 60.0467 114.333 61.06 114.333 62.18C114.333 63.3533 114.453 64.4 114.693 65.32C114.946 66.2267 115.306 66.9467 115.773 67.48C116.239 68 116.799 68.26 117.453 68.26Z" fill="white"/>
<path d="M74.8159 93.176C73.8879 93.176 73.0826 92.9893 72.3999 92.616C71.7279 92.232 71.2053 91.6933 70.8319 91C70.4586 90.3067 70.2719 89.496 70.2719 88.568C70.2719 87.6293 70.4586 86.8133 70.8319 86.12C71.2053 85.4267 71.7279 84.888 72.3999 84.504C73.0826 84.12 73.8879 83.928 74.8159 83.928C75.7546 83.928 76.5599 84.12 77.2319 84.504C77.9146 84.888 78.4373 85.4267 78.7999 86.12C79.1626 86.8133 79.3439 87.6293 79.3439 88.568C79.3439 89.496 79.1626 90.3067 78.7999 91C78.4373 91.6933 77.9146 92.232 77.2319 92.616C76.5599 92.9893 75.7546 93.176 74.8159 93.176ZM75.0719 91.704C75.7439 91.6507 76.2666 91.368 76.6399 90.856C77.0133 90.3333 77.1999 89.6667 77.1999 88.856C77.1999 88.7707 77.1999 88.6907 77.1999 88.616C77.1999 88.5307 77.1946 88.4453 77.1839 88.36C77.1093 87.4427 76.8533 86.7227 76.4159 86.2C75.9893 85.6773 75.4453 85.416 74.7839 85.416C74.7413 85.416 74.7039 85.4213 74.6719 85.432C74.6399 85.432 74.6026 85.432 74.5599 85.432C73.9093 85.4747 73.3866 85.7573 72.9919 86.28C72.6079 86.8027 72.4159 87.4747 72.4159 88.296C72.4159 88.3707 72.4159 88.4507 72.4159 88.536C72.4159 88.6107 72.4213 88.6907 72.4319 88.776C72.5066 89.6827 72.7679 90.4027 73.2159 90.936C73.6639 91.4587 74.2133 91.72 74.8639 91.72C74.8959 91.72 74.9279 91.72 74.9599 91.72C75.0026 91.7093 75.0399 91.704 75.0719 91.704ZM88.8706 93.16C88.2199 92.808 87.7986 92.3547 87.6066 91.8C87.4572 92.088 87.2226 92.3333 86.9026 92.536C86.5826 92.7387 86.2146 92.8933 85.7986 93C85.3932 93.1173 84.9772 93.176 84.5506 93.176C83.6759 93.176 82.9772 92.8933 82.4546 92.328C81.9426 91.752 81.6599 91.0267 81.6066 90.152L81.2866 83.848L83.5586 84.12V89.784C83.5586 90.328 83.7026 90.7387 83.9906 91.016C84.2786 91.2933 84.6679 91.432 85.1586 91.432C85.6172 91.432 86.0332 91.3093 86.4066 91.064C86.7906 90.8187 87.0519 90.4613 87.1906 89.992V83.848L89.4626 84.12L89.1906 90.152V90.248C89.1906 90.6427 89.2919 91.0533 89.4946 91.48C89.7079 91.9067 90.0119 92.3013 90.4066 92.664L88.8706 93.16ZM96.0281 93.176C94.7907 93.176 93.8947 92.9307 93.3401 92.44C92.7854 91.9493 92.5081 91.24 92.5081 90.312V85.608H91.2921L90.9721 84.376L92.5081 84.216V81.336L94.7641 81.656L94.6841 83.992L96.2841 83.832V85.608H94.6201L94.4601 90.024V90.184C94.4601 90.7067 94.5934 91.1227 94.8601 91.432C95.1374 91.7307 95.6334 91.88 96.3481 91.88L96.0281 93.176ZM108.05 93.176C107.122 93.176 106.316 92.9893 105.634 92.616C104.962 92.232 104.439 91.6933 104.066 91C103.692 90.3067 103.506 89.496 103.506 88.568C103.506 87.6293 103.692 86.8133 104.066 86.12C104.439 85.4267 104.962 84.888 105.634 84.504C106.316 84.12 107.122 83.928 108.05 83.928C108.988 83.928 109.794 84.12 110.466 84.504C111.148 84.888 111.671 85.4267 112.034 86.12C112.396 86.8133 112.578 87.6293 112.578 88.568C112.578 89.496 112.396 90.3067 112.034 91C111.671 91.6933 111.148 92.232 110.466 92.616C109.794 92.9893 108.988 93.176 108.05 93.176ZM108.306 91.704C108.978 91.6507 109.5 91.368 109.874 90.856C110.247 90.3333 110.434 89.6667 110.434 88.856C110.434 88.7707 110.434 88.6907 110.434 88.616C110.434 88.5307 110.428 88.4453 110.418 88.36C110.343 87.4427 110.087 86.7227 109.65 86.2C109.223 85.6773 108.679 85.416 108.018 85.416C107.975 85.416 107.938 85.4213 107.906 85.432C107.874 85.432 107.836 85.432 107.794 85.432C107.143 85.4747 106.62 85.7573 106.226 86.28C105.842 86.8027 105.65 87.4747 105.65 88.296C105.65 88.3707 105.65 88.4507 105.65 88.536C105.65 88.6107 105.655 88.6907 105.666 88.776C105.74 89.6827 106.002 90.4027 106.45 90.936C106.898 91.4587 107.447 91.72 108.098 91.72C108.13 91.72 108.162 91.72 108.194 91.72C108.236 91.7093 108.274 91.704 108.306 91.704ZM115.272 93.208L115.032 85.608H113.848L113.528 84.376L114.984 84.232L114.952 83.176V83C114.952 81.9653 115.251 81.2453 115.848 80.84C116.456 80.4347 117.422 80.2267 118.744 80.216L119.032 81.528C118.318 81.528 117.827 81.6453 117.56 81.88C117.294 82.1147 117.16 82.5627 117.16 83.224V84.008L118.84 83.832V85.608H117.16V93L115.272 93.208ZM129.947 93.208V82.984L127.835 84.104L127.307 83.208L130.043 80.36L132.267 80.84L131.947 92.904L129.947 93.208ZM141.65 93.288C140.786 93.288 139.997 93.0267 139.282 92.504C138.568 91.9813 137.997 91.2293 137.57 90.248C137.154 89.2667 136.946 88.0987 136.946 86.744C136.946 85.816 137.069 84.9573 137.314 84.168C137.56 83.3787 137.896 82.6907 138.322 82.104C138.749 81.5067 139.245 81.0427 139.81 80.712C140.386 80.3813 141 80.216 141.65 80.216C142.301 80.216 142.909 80.3813 143.474 80.712C144.05 81.032 144.552 81.4853 144.978 82.072C145.416 82.6587 145.757 83.352 146.002 84.152C146.248 84.9413 146.37 85.8053 146.37 86.744C146.37 87.7253 146.248 88.616 146.002 89.416C145.757 90.216 145.416 90.9093 144.978 91.496C144.552 92.072 144.05 92.5147 143.474 92.824C142.909 93.1333 142.301 93.288 141.65 93.288ZM141.65 91.608C142.173 91.608 142.621 91.4 142.994 90.984C143.368 90.5573 143.656 89.9813 143.858 89.256C144.061 88.52 144.162 87.6827 144.162 86.744C144.162 85.8587 144.061 85.0533 143.858 84.328C143.656 83.592 143.368 83.0053 142.994 82.568C142.621 82.1307 142.173 81.912 141.65 81.912C141.128 81.912 140.68 82.1307 140.306 82.568C139.933 82.9947 139.645 83.576 139.442 84.312C139.25 85.0373 139.154 85.848 139.154 86.744C139.154 87.6827 139.25 88.52 139.442 89.256C139.645 89.9813 139.933 90.5573 140.306 90.984C140.68 91.4 141.128 91.608 141.65 91.608ZM152.857 93.288C151.993 93.288 151.204 93.0267 150.489 92.504C149.775 91.9813 149.204 91.2293 148.777 90.248C148.361 89.2667 148.153 88.0987 148.153 86.744C148.153 85.816 148.276 84.9573 148.521 84.168C148.767 83.3787 149.103 82.6907 149.529 82.104C149.956 81.5067 150.452 81.0427 151.017 80.712C151.593 80.3813 152.207 80.216 152.857 80.216C153.508 80.216 154.116 80.3813 154.681 80.712C155.257 81.032 155.759 81.4853 156.185 82.072C156.623 82.6587 156.964 83.352 157.209 84.152C157.455 84.9413 157.577 85.8053 157.577 86.744C157.577 87.7253 157.455 88.616 157.209 89.416C156.964 90.216 156.623 90.9093 156.185 91.496C155.759 92.072 155.257 92.5147 154.681 92.824C154.116 93.1333 153.508 93.288 152.857 93.288ZM152.857 91.608C153.38 91.608 153.828 91.4 154.201 90.984C154.575 90.5573 154.863 89.9813 155.065 89.256C155.268 88.52 155.369 87.6827 155.369 86.744C155.369 85.8587 155.268 85.0533 155.065 84.328C154.863 83.592 154.575 83.0053 154.201 82.568C153.828 82.1307 153.38 81.912 152.857 81.912C152.335 81.912 151.887 82.1307 151.513 82.568C151.14 82.9947 150.852 83.576 150.649 84.312C150.457 85.0373 150.361 85.848 150.361 86.744C150.361 87.6827 150.457 88.52 150.649 89.256C150.852 89.9813 151.14 90.5573 151.513 90.984C151.887 91.4 152.335 91.608 152.857 91.608Z" fill="#B0BEC5"/>
</svg>
