<?xml version="1.0" encoding="UTF-8"?>
<svg version="1.1" xmlns="http://www.w3.org/2000/svg" width="500" height="500">
<path d="M0 0 C53.46027397 0 53.46027397 0 69 8 C69.94488281 8.48082031 70.88976562 8.96164063 71.86328125 9.45703125 C82.81449583 15.68241049 90.19569951 26.20204767 93.640625 38.23828125 C98.40065322 57.92439795 97.04688579 79.23713569 87.375 97.1875 C77.92024684 112.10237312 61.22387791 116.18261696 45 120 C30.15 120 15.3 120 0 120 C0 80.4 0 40.8 0 0 Z M24 23 C24 47.42 24 71.84 24 97 C44.66005424 97.54174424 44.66005424 97.54174424 62.3515625 88.7734375 C65.32111128 85.57870966 67.19747221 81.94211363 69 78 C69.4125 77.113125 69.825 76.22625 70.25 75.3125 C73.54794947 65.14382246 73.38617186 52.78199083 69 43 C63.87981159 33.19029323 57.01912394 28.34388911 46.7109375 24.76171875 C38.81748375 22.54381748 32.562639 23 24 23 Z " fill="#FEFEFE" transform="translate(205,227)"/>
<path d="M0 0 C3.83764074 3.42395011 6.16886576 7.30843551 8.75 11.6875 C13.35111883 19.35550115 18.10193049 26.91524817 22.9375 34.4375 C27.69148958 41.83878741 32.43618937 49.24471689 37.125 56.6875 C41.35904959 63.40605116 45.60992263 70.11359812 49.875 76.8125 C50.45894531 77.72966797 51.04289063 78.64683594 51.64453125 79.59179688 C53.42943861 82.39468986 55.21465839 85.19738359 57 88 C71.47300743 110.7196229 71.47300743 110.7196229 78.43505859 121.77978516 C81.22149662 126.20200532 84.03031467 130.60880882 86.859375 135.00390625 C87.50648438 136.01195312 88.15359375 137.02 88.8203125 138.05859375 C90.0874061 140.03105322 91.35812816 142.00118745 92.6328125 143.96875 C93.20257813 144.85691406 93.77234375 145.74507812 94.359375 146.66015625 C94.86952148 147.45043213 95.37966797 148.24070801 95.90527344 149.05493164 C97 151 97 151 97 153 C82.81 153 68.62 153 54 153 C54.66 151.68 55.32 150.36 56 149 C59.00390625 148.4609375 59.00390625 148.4609375 62.5625 148.375 C64.71109998 148.31381314 66.86021132 148.2037894 69 148 C69.33 147.34 69.66 146.68 70 146 C74.29 146 78.58 146 83 146 C76.08690348 134.36231051 69.04675548 122.8149375 61.85131836 111.34960938 C57.19391734 103.92416931 52.58522641 96.47020009 48 89 C42.86935454 80.64377458 37.70676143 72.30901201 32.5 64 C25.24080344 52.41437237 18.07142774 40.77494235 10.91845703 29.12353516 C7.61604857 23.74671996 4.3078719 18.37345534 1 13 C-1.82361981 15.66314807 -3.94283924 18.24637462 -5.92578125 21.578125 C-6.4671875 22.47917969 -7.00859375 23.38023438 -7.56640625 24.30859375 C-8.14261719 25.27925781 -8.71882813 26.24992187 -9.3125 27.25 C-10.5676901 29.33933543 -11.82424407 31.42785199 -13.08203125 33.515625 C-13.72865723 34.59005859 -14.3752832 35.66449219 -15.04150391 36.77148438 C-18.14112501 41.8811066 -21.31970268 46.94034171 -24.5 52 C-30.0308897 60.81465425 -35.47814532 69.67603899 -40.87548828 78.57299805 C-44.67839877 84.83853671 -48.51156421 91.08410829 -52.375 97.3125 C-57.03403659 104.82609802 -61.68981034 112.34165858 -66.32940674 119.86727905 C-67.33753833 121.50176338 -68.34720648 123.13529967 -69.35693359 124.76879883 C-73.68047263 131.78504899 -77.87093158 138.86748775 -82 146 C-77.38 146 -72.76 146 -68 146 C-68 146.99 -68 147.98 -68 149 C-67.26394531 148.97679687 -66.52789062 148.95359375 -65.76953125 148.9296875 C-64.79371094 148.91164062 -63.81789062 148.89359375 -62.8125 148.875 C-61.84957031 148.85179687 -60.88664062 148.82859375 -59.89453125 148.8046875 C-56.8364022 149.01103899 -54.72481396 149.61581387 -52 151 C-51.67 151.66 -51.34 152.32 -51 153 C-66.18 153 -81.36 153 -97 153 C-89.03763431 139.35023025 -89.03763431 139.35023025 -84.8125 132.9375 C-80.84771919 126.86300032 -76.92994451 120.76195907 -73.0625 114.625 C-72.56258545 113.8319043 -72.0626709 113.03880859 -71.54760742 112.22167969 C-70.5339012 110.61264286 -69.52047354 109.00343051 -68.50732422 107.39404297 C-66.04934373 103.49009793 -63.58763679 99.58850906 -61.125 95.6875 C-60.63306152 94.90802002 -60.14112305 94.12854004 -59.63427734 93.32543945 C-55.83520552 87.31054888 -52.01280563 81.31072872 -48.1875 75.3125 C-43.22369531 67.52892979 -38.31636861 59.71205122 -33.4375 51.875 C-28.29103904 43.61228467 -23.05906114 35.41335465 -17.72924805 27.26782227 C-13.30669283 20.5015261 -8.98205158 13.67633031 -4.69262695 6.82495117 C-4.22171631 6.0744751 -3.75080566 5.32399902 -3.265625 4.55078125 C-2.85086914 3.88731689 -2.43611328 3.22385254 -2.00878906 2.5402832 C-1 1 -1 1 0 0 Z " fill="#FCFCFC" transform="translate(247,91)"/>
<path d="" fill="#000000" transform="translate(0,0)"/>
<path d="" fill="#000000" transform="translate(0,0)"/>
<path d="" fill="#000000" transform="translate(0,0)"/>
<path d="" fill="#000000" transform="translate(0,0)"/>
<path d="" fill="#000000" transform="translate(0,0)"/>
<path d="" fill="#000000" transform="translate(0,0)"/>
<path d="" fill="#000000" transform="translate(0,0)"/>
<path d="" fill="#000000" transform="translate(0,0)"/>
<path d="" fill="#000000" transform="translate(0,0)"/>
<path d="" fill="#000000" transform="translate(0,0)"/>
<path d="" fill="#000000" transform="translate(0,0)"/>
<path d="" fill="#000000" transform="translate(0,0)"/>
<path d="" fill="#000000" transform="translate(0,0)"/>
<path d="" fill="#000000" transform="translate(0,0)"/>
<path d="" fill="#000000" transform="translate(0,0)"/>
<path d="" fill="#000000" transform="translate(0,0)"/>
<path d="" fill="#000000" transform="translate(0,0)"/>
<path d="" fill="#000000" transform="translate(0,0)"/>
<path d="" fill="#000000" transform="translate(0,0)"/>
<path d="" fill="#000000" transform="translate(0,0)"/>
<path d="" fill="#000000" transform="translate(0,0)"/>
<path d="" fill="#000000" transform="translate(0,0)"/>
<path d="" fill="#000000" transform="translate(0,0)"/>
<path d="" fill="#000000" transform="translate(0,0)"/>
<path d="" fill="#000000" transform="translate(0,0)"/>
<path d="" fill="#000000" transform="translate(0,0)"/>
<path d="" fill="#000000" transform="translate(0,0)"/>
<path d="" fill="#000000" transform="translate(0,0)"/>
<path d="" fill="#000000" transform="translate(0,0)"/>
<path d="" fill="#000000" transform="translate(0,0)"/>
<path d="" fill="#000000" transform="translate(0,0)"/>
<path d="" fill="#000000" transform="translate(0,0)"/>
<path d="" fill="#000000" transform="translate(0,0)"/>
<path d="" fill="#000000" transform="translate(0,0)"/>
<path d="" fill="#000000" transform="translate(0,0)"/>
<path d="" fill="#000000" transform="translate(0,0)"/>
<path d="" fill="#000000" transform="translate(0,0)"/>
<path d="" fill="#000000" transform="translate(0,0)"/>
<path d="" fill="#000000" transform="translate(0,0)"/>
<path d="" fill="#000000" transform="translate(0,0)"/>
<path d="" fill="#000000" transform="translate(0,0)"/>
<path d="" fill="#000000" transform="translate(0,0)"/>
<path d="" fill="#000000" transform="translate(0,0)"/>
<path d="" fill="#000000" transform="translate(0,0)"/>
<path d="" fill="#000000" transform="translate(0,0)"/>
<path d="" fill="#000000" transform="translate(0,0)"/>
<path d="" fill="#000000" transform="translate(0,0)"/>
<path d="" fill="#000000" transform="translate(0,0)"/>
<path d="" fill="#000000" transform="translate(0,0)"/>
<path d="" fill="#000000" transform="translate(0,0)"/>
<path d="" fill="#000000" transform="translate(0,0)"/>
<path d="" fill="#000000" transform="translate(0,0)"/>
<path d="" fill="#000000" transform="translate(0,0)"/>
<path d="" fill="#000000" transform="translate(0,0)"/>
<path d="" fill="#000000" transform="translate(0,0)"/>
<path d="" fill="#000000" transform="translate(0,0)"/>
<path d="" fill="#000000" transform="translate(0,0)"/>
<path d="" fill="#000000" transform="translate(0,0)"/>
<path d="" fill="#000000" transform="translate(0,0)"/>
<path d="" fill="#000000" transform="translate(0,0)"/>
<path d="" fill="#000000" transform="translate(0,0)"/>
<path d="" fill="#000000" transform="translate(0,0)"/>
<path d="" fill="#000000" transform="translate(0,0)"/>
<path d="" fill="#000000" transform="translate(0,0)"/>
<path d="" fill="#000000" transform="translate(0,0)"/>
<path d="" fill="#000000" transform="translate(0,0)"/>
<path d="" fill="#000000" transform="translate(0,0)"/>
<path d="" fill="#000000" transform="translate(0,0)"/>
<path d="" fill="#000000" transform="translate(0,0)"/>
<path d="" fill="#000000" transform="translate(0,0)"/>
<path d="" fill="#000000" transform="translate(0,0)"/>
<path d="" fill="#000000" transform="translate(0,0)"/>
<path d="" fill="#000000" transform="translate(0,0)"/>
<path d="" fill="#000000" transform="translate(0,0)"/>
<path d="" fill="#000000" transform="translate(0,0)"/>
<path d="" fill="#000000" transform="translate(0,0)"/>
<path d="" fill="#000000" transform="translate(0,0)"/>
<path d="" fill="#000000" transform="translate(0,0)"/>
</svg>
