<?xml version="1.0" encoding="UTF-8"?>
<svg version="1.1" xmlns="http://www.w3.org/2000/svg" width="48" height="48">
<path d="M0 0 C6.77650204 -0.64538115 10.56024605 0.1289953 16.046875 4.234375 C19.6201476 7.46461343 21.76107949 10.46501287 22.23046875 15.4453125 C22.24773331 17.64827084 22.17917705 19.80508109 22 22 C21.34 22 20.68 22 20 22 C19.896875 23.010625 19.79375 24.02125 19.6875 25.0625 C18.69496313 30.74702936 17.63320735 34.58455363 13.1875 38.4375 C7.53124533 41.18756862 1.08218793 40.9013197 -5 40 C-10.17282154 37.93233263 -14.94379649 34.38798409 -17.40234375 29.2421875 C-19.07756445 22.95737257 -19.30745394 16.19262009 -16.82421875 10.12890625 C-13.24660088 4.35109962 -13.24660088 4.35109962 -9.53125 3.3046875 C-8.6959375 3.20414062 -7.860625 3.10359375 -7 3 C-5.741875 2.814375 -4.48375 2.62875 -3.1875 2.4375 C-1.6096875 2.2209375 -1.6096875 2.2209375 0 2 C0 1.34 0 0.68 0 0 Z " fill="#E0DEFE" transform="translate(22,4)"/>
<path d="M0 0 C6.77650204 -0.64538115 10.56024605 0.1289953 16.046875 4.234375 C19.6201476 7.46461343 21.76107949 10.46501287 22.23046875 15.4453125 C22.24773331 17.64827084 22.17917705 19.80508109 22 22 C21.34 22 20.68 22 20 22 C19.67 23.65 19.34 25.3 19 27 C18.34 26.34 17.68 25.68 17 25 C16.32517578 24.32710937 16.32517578 24.32710937 15.63671875 23.640625 C14.40509924 22.40606606 13.17955762 21.16543911 11.95703125 19.921875 C11.24933594 19.20515625 10.54164062 18.4884375 9.8125 17.75 C9.13832031 17.06421875 8.46414062 16.3784375 7.76953125 15.671875 C6.09201005 13.92550889 6.09201005 13.92550889 4 13 C4 17.95 4 22.9 4 28 C2.68 28 1.36 28 0 28 C-0.33 22.39 -0.66 16.78 -1 11 C-2.32 11 -3.64 11 -5 11 C-4.4238322 7.11086736 -2.43876197 4.98945016 0 2 C0 1.34 0 0.68 0 0 Z " fill="#875AFE" transform="translate(22,4)"/>
<path d="M0 0 C-0.47945519 2.99659495 -1.36967259 4.57131219 -3.0625 7.1875 C-5.54245283 11.43884771 -5.80266834 15.18398997 -5 20 C-3.66146643 24.4828994 -1.76133336 27.88274998 2.1875 30.5 C6.36298195 32.51605888 10.45768248 32.71414864 15 32 C18.21712945 30.64185993 18.21712945 30.64185993 21 29 C23.875 28.3125 23.875 28.3125 26 28 C25.9375 29.75 25.9375 29.75 25 32 C19.62500176 36.49999852 14.33416327 36.7240061 7.453125 36.51171875 C0.63310029 35.50105898 -3.19962739 32.1077533 -7.5625 27 C-10.21719592 21.44365971 -9.90386914 14.94545035 -9 9 C-5.14112903 -0 -5.14112903 -0 0 0 Z " fill="#8455FD" transform="translate(13,8)"/>
<path d="M0 0 C1.32 0.99 2.64 1.98 4 3 C4.65613281 2.82726562 5.31226563 2.65453125 5.98828125 2.4765625 C6.65214844 2.31929687 7.31601562 2.16203125 8 2 C11.99317542 4.53370314 15.40259596 7.94543585 16.73828125 12.5390625 C17 15 17 15 17 19 C16.34 19.33 15.68 19.66 15 20 C14.57589844 19.49210937 14.15179688 18.98421875 13.71484375 18.4609375 C9.77219118 13.83373646 5.70899866 9.84408054 1 6 C1 10.95 1 15.9 1 21 C0.67 21 0.34 21 0 21 C0 14.07 0 7.14 0 0 Z " fill="#A49CFE" transform="translate(25,11)"/>
<path d="M0 0 C6.72697427 1.45091602 9.86911529 3.94573191 13.875 9.6875 C14.431875 10.8321875 14.431875 10.8321875 15 12 C14.67 12.66 14.34 13.32 14 14 C13.51789062 13.4946875 13.03578125 12.989375 12.5390625 12.46875 C11.90742187 11.8190625 11.27578125 11.169375 10.625 10.5 C9.68527344 9.52546875 9.68527344 9.52546875 8.7265625 8.53125 C7.13524093 6.77882569 7.13524093 6.77882569 5 7 C3.7109375 5.46875 3.7109375 5.46875 2.375 3.5 C1.70597656 2.52546875 1.70597656 2.52546875 1.0234375 1.53125 C0.68570312 1.0259375 0.34796875 0.520625 0 0 Z " fill="#7E75FE" transform="translate(26,7)"/>
<path d="M0 0 C1.12588014 0.95729916 2.2506715 1.91587895 3.375 2.875 C4.00148438 3.40867187 4.62796875 3.94234375 5.2734375 4.4921875 C6.55836651 5.61432007 7.79371975 6.79371975 9 8 C8.67 9.32 8.34 10.64 8 12 C5.03 9.03 2.06 6.06 -1 3 C-0.67 2.01 -0.34 1.02 0 0 Z " fill="#8F8BFE" transform="translate(32,13)"/>
<path d="M0 0 C-1.23697917 1.46484375 -2.47395833 2.9296875 -3.7109375 4.39453125 C-4.89201099 5.8655046 -5.95358529 7.43037794 -7 9 C-7.33 6.36 -7.66 3.72 -8 1 C-5.07175348 0.02391783 -3.04386724 -0.08226668 0 0 Z " fill="#B0AAFE" transform="translate(23,6)"/>
</svg>
