<?xml version="1.0" encoding="UTF-8"?>
<svg version="1.1" xmlns="http://www.w3.org/2000/svg" width="48" height="48">
<path d="M0 0 C2.95034042 3.04253856 3.23469754 5.8445776 3.4375 9.9375 C3.28977244 14.65774714 2.2223235 17.41964055 -1 21 C-5.23266096 23.56257135 -9.17374145 23.66625118 -14 23 C-17.35473105 21.77204184 -20.19840467 20.26003279 -22.16796875 17.1640625 C-23.69839167 13.1835259 -23.54161624 9.18761822 -23 5 C-21.37915526 1.75831051 -20.05801565 -0.19736744 -17.1875 -2.375 C-11.14000887 -4.10285461 -5.40871155 -2.99671856 0 0 Z " fill="#C0FDDA" transform="translate(25,14)"/>
<path d="M0 0 C2.4866001 0.24063872 3.78353207 0.82991806 5.75 2.375 C7 4 7 4 7 7 C5.02 6.34 3.04 5.68 1 5 C2.50789479 7.69931981 2.50789479 7.69931981 5 10 C8.70054409 9.9363921 8.70054409 9.9363921 12 9 C12.99 10.32 13.98 11.64 15 13 C11.16674383 15.70582788 8.67461851 16.32613618 4 16 C3.67 16.66 3.34 17.32 3 18 C0.05532094 16.52766047 -0.34224604 14.17302641 -1.39453125 11.203125 C-2.26294334 8.04322552 -2.32474242 5.24742422 -2 2 C-1.34 1.34 -0.68 0.68 0 0 Z " fill="#E6FDF0" transform="translate(7,18)"/>
<path d="M0 0 C2.81042113 0.29073322 3.83347282 0.81563062 5.75 2.9375 C7.54777975 7.34206039 7.68327382 11.3071853 7 16 C4.94144298 20.11711403 3.25767756 22.31852589 -1 24 C-3.359375 24.1953125 -3.359375 24.1953125 -5.75 24.125 C-6.54921875 24.10695313 -7.3484375 24.08890625 -8.171875 24.0703125 C-8.77515625 24.04710938 -9.3784375 24.02390625 -10 24 C-10 23.01 -10 22.02 -10 21 C-9.07767578 20.80083984 -9.07767578 20.80083984 -8.13671875 20.59765625 C-7.32847656 20.42105469 -6.52023438 20.24445312 -5.6875 20.0625 C-4.88699219 19.88847656 -4.08648437 19.71445312 -3.26171875 19.53515625 C-0.854599 19.00113841 -0.854599 19.00113841 2 18 C2.19627391 16.41773035 2.38165538 14.83410729 2.5625 13.25 C2.66691406 12.36828125 2.77132813 11.4865625 2.87890625 10.578125 C2.99456676 8.11567549 2.73638695 6.33461936 2 4 C1.34 4 0.68 4 0 4 C0 2.68 0 1.36 0 0 Z " fill="#15E36F" transform="translate(21,13)"/>
<path d="M0 0 C-0.33 0.99 -0.66 1.98 -1 3 C-3 3.66666667 -5 4.33333333 -7 5 C-9.47981752 6.56304526 -9.47981752 6.56304526 -11 9 C-11.46935941 13.38068783 -11.17030336 16.20196913 -9 20 C-9 20.99 -9 21.98 -9 23 C-10.875 22.75 -10.875 22.75 -13 22 C-15.78928712 17.61964065 -15.64931832 13.02033918 -15 8 C-13.37915526 4.75831051 -12.05801565 2.80263256 -9.1875 0.625 C-6.09681682 -0.25805234 -3.1927746 -0.12279902 0 0 Z " fill="#12E26D" transform="translate(17,11)"/>
<path d="M0 0 C4.95 0 9.9 0 15 0 C15 1.32 15 2.64 15 4 C10.05 4 5.1 4 0 4 C0 2.68 0 1.36 0 0 Z " fill="#0FE26B" transform="translate(31,22)"/>
<path d="M0 0 C0.66 0 1.32 0 2 0 C1.42424336 3.35250701 0.40693737 4.93818629 -2.0625 7.25 C-2.88427734 8.03117187 -2.88427734 8.03117187 -3.72265625 8.828125 C-4.14417969 9.21484375 -4.56570312 9.6015625 -5 10 C-7.62187494 8.95125002 -8.79371361 8.35068687 -10.25 5.875 C-10.4975 5.25625 -10.745 4.6375 -11 4 C-10.113125 4.268125 -9.22625 4.53625 -8.3125 4.8125 C-4.80232899 5.40139941 -4.80232899 5.40139941 -2.25 2.5625 C-1.5075 1.716875 -0.765 0.87125 0 0 Z " fill="#18E471" transform="translate(19,19)"/>
<path d="M0 0 C0.125 3.375 0.125 3.375 0 7 C-0.66 7.66 -1.32 8.32 -2 9 C-2.5878125 8.2265625 -2.5878125 8.2265625 -3.1875 7.4375 C-4.0846875 6.7259375 -4.0846875 6.7259375 -5 6 C-7.65466049 6.23043864 -7.65466049 6.23043864 -10 7 C-9.09827532 5.82174642 -8.17798498 4.65768423 -7.25 3.5 C-6.73953125 2.8503125 -6.2290625 2.200625 -5.703125 1.53125 C-4 0 -4 0 0 0 Z " fill="#ACFDCF" transform="translate(24,22)"/>
<path d="M0 0 C0 1.32 0 2.64 0 4 C0.66 4 1.32 4 2 4 C4.09350689 7.4019487 4.17942163 10.05272412 4 14 C3.67 14 3.34 14 3 14 C3 12.35 3 10.7 3 9 C2.01 9 1.02 9 0 9 C-0.4125 8.21625 -0.825 7.4325 -1.25 6.625 C-3.62604214 3.0609368 -5.91862822 2.84707716 -10 2 C-10 1.67 -10 1.34 -10 1 C-3.71428571 -1.42857143 -3.71428571 -1.42857143 0 0 Z " fill="#7AFBB2" transform="translate(21,13)"/>
<path d="M0 0 C3.24067792 0.43209039 5.00380674 1.40494876 7 4 C7 4.99 7 5.98 7 7 C5.02 6.34 3.04 5.68 1 5 C1 4.01 1 3.02 1 2 C0.34 1.67 -0.32 1.34 -1 1 C-0.67 0.67 -0.34 0.34 0 0 Z " fill="#D1FDE4" transform="translate(7,18)"/>
<path d="M0 0 C2.1875 1.4375 2.1875 1.4375 4 3 C3.67 3.99 3.34 4.98 3 6 C2.4121875 5.2265625 2.4121875 5.2265625 1.8125 4.4375 C1.214375 3.963125 0.61625 3.48875 0 3 C-2.65466049 3.23043864 -2.65466049 3.23043864 -5 4 C-3 1 -3 1 0 0 Z " fill="#C5FDDD" transform="translate(19,25)"/>
<path d="M0 0 C2.375 0.3125 2.375 0.3125 5 1 C5.66 1.99 6.32 2.98 7 4 C6.01 4.66 5.02 5.32 4 6 C2.68 4.02 1.36 2.04 0 0 Z " fill="#9EFDC7" transform="translate(13,15)"/>
<path d="M0 0 C3.83736322 0.95934081 4.59660228 1.23609263 7 4 C6.67 4.99 6.34 5.98 6 7 C4.02 4.69 2.04 2.38 0 0 Z " fill="#B5FED4" transform="translate(10,15)"/>
</svg>
