<svg width="53" height="52" viewBox="0 0 53 52" fill="none" xmlns="http://www.w3.org/2000/svg">
<path d="M6.89008 14.04C6.60895 14.04 6.33933 14.1496 6.14055 14.3446C5.94176 14.5397 5.83008 14.8042 5.83008 15.08C5.83008 15.3559 5.94176 15.6204 6.14055 15.8154C6.33933 16.0105 6.60895 16.12 6.89008 16.12C7.17121 16.12 7.44082 16.0105 7.63961 15.8154C7.8384 15.6204 7.95008 15.3559 7.95008 15.08C7.95008 14.8042 7.8384 14.5397 7.63961 14.3446C7.44082 14.1496 7.17121 14.04 6.89008 14.04Z" fill="#78A0CF"/>
<path d="M40.81 6.23999C40.6695 6.23999 40.5347 6.29478 40.4353 6.39229C40.3359 6.48981 40.28 6.62208 40.28 6.75999C40.28 6.8979 40.3359 7.03017 40.4353 7.12769C40.5347 7.2252 40.6695 7.27999 40.81 7.27999C40.9506 7.27999 41.0854 7.2252 41.1848 7.12769C41.2842 7.03017 41.34 6.8979 41.34 6.75999C41.34 6.62208 41.2842 6.48981 41.1848 6.39229C41.0854 6.29478 40.9506 6.23999 40.81 6.23999Z" fill="#F1BC19"/>
<path d="M26.4999 6.76001C21.299 6.76001 16.3111 8.78708 12.6335 12.3953C8.95594 16.0035 6.88989 20.8972 6.88989 26C6.88989 31.1028 8.95594 35.9965 12.6335 39.6047C16.3111 43.2129 21.299 45.24 26.4999 45.24C31.7008 45.24 36.6887 43.2129 40.3663 39.6047C44.0438 35.9965 46.1099 31.1028 46.1099 26C46.1099 20.8972 44.0438 16.0035 40.3663 12.3953C36.6887 8.78708 31.7008 6.76001 26.4999 6.76001Z" fill="#CEE1F4"/>
<path d="M43.9901 5.71997C43.4279 5.71997 42.8886 5.93911 42.491 6.32919C42.0935 6.71926 41.8701 7.24832 41.8701 7.79997C41.8701 8.35162 42.0935 8.88068 42.491 9.27075C42.8886 9.66083 43.4279 9.87997 43.9901 9.87997C44.5524 9.87997 45.0916 9.66083 45.4892 9.27075C45.8868 8.88068 46.1101 8.35162 46.1101 7.79997C46.1101 7.24832 45.8868 6.71926 45.4892 6.32919C45.0916 5.93911 44.5524 5.71997 43.9901 5.71997Z" fill="#F1BC19"/>
<path d="M46.11 11.4399C45.8289 11.4399 45.5593 11.5495 45.3605 11.7446C45.1617 11.9396 45.05 12.2041 45.05 12.4799C45.05 12.7558 45.1617 13.0203 45.3605 13.2153C45.5593 13.4104 45.8289 13.5199 46.11 13.5199C46.3912 13.5199 46.6608 13.4104 46.8596 13.2153C47.0584 13.0203 47.17 12.7558 47.17 12.4799C47.17 12.2041 47.0584 11.9396 46.8596 11.7446C46.6608 11.5495 46.3912 11.4399 46.11 11.4399Z" fill="#78A0CF"/>
<path d="M42.9301 38.4799C42.649 38.4799 42.3793 38.5895 42.1805 38.7845C41.9818 38.9796 41.8701 39.2441 41.8701 39.5199C41.8701 39.7958 41.9818 40.0603 42.1805 40.2553C42.3793 40.4504 42.649 40.5599 42.9301 40.5599C43.2112 40.5599 43.4808 40.4504 43.6796 40.2553C43.8784 40.0603 43.9901 39.7958 43.9901 39.5199C43.9901 39.2441 43.8784 38.9796 43.6796 38.7845C43.4808 38.5895 43.2112 38.4799 42.9301 38.4799ZM7.95008 30.6799C7.38782 30.6799 6.84859 30.8991 6.45101 31.2891C6.05343 31.6792 5.83008 32.2083 5.83008 32.7599C5.83008 33.3116 6.05343 33.8406 6.45101 34.2307C6.84859 34.6208 7.38782 34.8399 7.95008 34.8399C8.51234 34.8399 9.05157 34.6208 9.44914 34.2307C9.84672 33.8406 10.0701 33.3116 10.0701 32.7599C10.0701 32.2083 9.84672 31.6792 9.44914 31.2891C9.05157 30.8991 8.51234 30.6799 7.95008 30.6799Z" fill="#FBCD59"/>
<path d="M13.2499 44.2C12.9688 44.2 12.6992 44.3095 12.5004 44.5046C12.3016 44.6996 12.1899 44.9641 12.1899 45.24C12.1899 45.5158 12.3016 45.7803 12.5004 45.9753C12.6992 46.1704 12.9688 46.28 13.2499 46.28C13.5311 46.28 13.8007 46.1704 13.9995 45.9753C14.1983 45.7803 14.3099 45.5158 14.3099 45.24C14.3099 44.9641 14.1983 44.6996 13.9995 44.5046C13.8007 44.3095 13.5311 44.2 13.2499 44.2Z" fill="#78A0CF"/>
<path d="M9.80498 26.52C9.45357 26.52 9.11655 26.657 8.86806 26.9008C8.61958 27.1446 8.47998 27.4752 8.47998 27.82C8.47998 28.1648 8.61958 28.4955 8.86806 28.7393C9.11655 28.9831 9.45357 29.12 9.80498 29.12C10.1564 29.12 10.4934 28.9831 10.7419 28.7393C10.9904 28.4955 11.13 28.1648 11.13 27.82C11.13 27.4752 10.9904 27.1446 10.7419 26.9008C10.4934 26.657 10.1564 26.52 9.80498 26.52Z" fill="white"/>
<path d="M11.1301 34.3201C10.9895 34.3201 10.8547 34.3749 10.7553 34.4724C10.6559 34.5699 10.6001 34.7022 10.6001 34.8401C10.6001 34.978 10.6559 35.1102 10.7553 35.2078C10.8547 35.3053 10.9895 35.3601 11.1301 35.3601C11.2707 35.3601 11.4055 35.3053 11.5049 35.2078C11.6043 35.1102 11.6601 34.978 11.6601 34.8401C11.6601 34.7022 11.6043 34.5699 11.5049 34.4724C11.4055 34.3749 11.2707 34.3201 11.1301 34.3201Z" fill="#F1BC19"/>
<path d="M42.4001 17.1599C42.2596 17.1599 42.1247 17.2147 42.0254 17.3122C41.926 17.4097 41.8701 17.542 41.8701 17.6799C41.8701 17.8178 41.926 17.9501 42.0254 18.0476C42.1247 18.1451 42.2596 18.1999 42.4001 18.1999C42.5407 18.1999 42.6755 18.1451 42.7749 18.0476C42.8743 17.9501 42.9301 17.8178 42.9301 17.6799C42.9301 17.542 42.8743 17.4097 42.7749 17.3122C42.6755 17.2147 42.5407 17.1599 42.4001 17.1599Z" fill="white"/>
<path d="M18.6735 24.6724C19.3169 20.9981 22.5717 18.2 26.5 18.2C28.2845 18.2 29.9259 18.7839 31.2531 19.7579L34.6414 16.1777C32.4244 14.3956 29.5899 13.325 26.5 13.325C20.1708 13.325 14.9137 17.8152 13.8484 23.7255L18.6735 24.6724Z" fill="#EA5167"/>
<path d="M31.2197 32.2753C29.8995 33.2326 28.2676 33.7999 26.5001 33.7999C22.3438 33.7999 18.938 30.6695 18.5851 26.6816L13.8633 28.226C14.962 34.0958 20.2 38.5449 26.5001 38.5449C29.8184 38.5449 32.8431 37.3104 35.1232 35.2845L31.2197 32.2753Z" fill="#00A698"/>
<path d="M36.3049 23.6599H34.0847H26.7649V28.3399H34.0847C33.516 30.1152 32.3182 31.6164 30.7478 32.593L34.5877 35.7328C37.4937 33.4208 39.3524 29.8916 39.3524 25.9349C39.3524 25.1575 39.2771 24.3983 39.1399 23.6599H36.3049Z" fill="#48BED8"/>
<path d="M18.55 25.9999C18.55 24.8648 18.8028 23.7889 19.2474 22.816L15.1039 20.1057C14.1753 21.8493 13.6475 23.831 13.6475 25.9349C13.6475 27.9026 14.1075 29.7647 14.9264 31.424L19.08 28.5999C18.886 27.925 18.55 26.7357 18.55 25.9999Z" fill="#FDE751"/>
<path d="M26.5001 38.9089C19.2089 38.9089 13.2766 33.0891 13.2766 25.9349C13.2766 18.7808 19.2089 12.9609 26.5001 12.9609C29.5476 12.9609 32.522 14.0035 34.8762 15.8969L35.1815 16.1423L31.2982 20.2461L31.0311 20.0501C29.7071 19.0777 28.1405 18.5639 26.5001 18.5639C22.3211 18.5639 18.9211 21.8997 18.9211 25.9999C18.9211 30.1001 22.3211 33.4359 26.5001 33.4359C29.6568 33.4359 32.4335 31.5546 33.5618 28.7039L26.5001 28.7081L26.4959 23.4124L39.4454 23.4083L39.5005 23.7067C39.6457 24.4883 39.7236 25.1633 39.7236 25.9349C39.7236 33.0891 33.7919 38.9089 26.5001 38.9089ZM26.5001 13.6889C19.6181 13.6889 14.0186 19.1822 14.0186 25.9349C14.0186 32.6877 19.6181 38.1809 26.5001 38.1809C33.3822 38.1809 38.9816 32.6877 38.9816 25.9349C38.9816 25.3052 38.926 24.7764 38.8226 24.1368H27.1319L27.1361 27.9759H34.5906L34.439 28.4491C33.3445 31.8671 30.1539 34.1639 26.5001 34.1639C21.9119 34.1639 18.1791 30.5016 18.1791 25.9999C18.1791 21.4983 21.9119 17.8359 26.5001 17.8359C28.1908 17.8359 29.81 18.3325 31.2039 19.2753L34.0966 16.2187C31.9263 14.5849 29.2445 13.6889 26.5001 13.6889Z" fill="#472B29"/>
</svg>
